<?xml version="1.0" standalone="no"?>
<!DOCTYPE svg PUBLIC "-//W3C//DTD SVG 20010904//EN"
 "http://www.w3.org/TR/2001/REC-SVG-20010904/DTD/svg10.dtd">
<svg version="1.0" xmlns="http://www.w3.org/2000/svg"
 width="994.000000pt" height="696.000000pt" viewBox="0 0 994.000000 696.000000"
 preserveAspectRatio="xMidYMid meet">

<g transform="translate(0.000000,696.000000) scale(0.100000,-0.100000)"
fill="#000000" stroke="none">
<path d="M8170 5758 c-29 -73 -66 -160 -81 -193 -15 -33 -59 -130 -97 -215
-108 -240 -112 -248 -133 -243 -11 3 -19 0 -19 -6 0 -6 7 -11 15 -11 8 0 15
-2 15 -4 0 -5 -151 -320 -156 -325 -2 -2 -9 1 -16 6 -44 35 -71 35 -914 13
-646 -17 -828 -19 -834 -10 -4 7 -10 36 -14 66 -9 77 -52 206 -101 304 -153
304 -457 520 -804 570 -113 17 -323 8 -421 -18 -359 -95 -636 -335 -763 -662
-32 -81 -67 -233 -67 -291 l0 -36 -202 -7 c-451 -15 -840 -26 -969 -26 l-136
0 -33 88 c-18 48 -90 209 -160 357 -70 149 -158 343 -196 432 -38 90 -72 163
-75 163 -22 0 -36 -572 -20 -781 28 -366 120 -692 254 -902 21 -32 37 -68 37
-81 0 -20 -13 -10 -82 62 -224 231 -519 423 -822 536 -152 57 -158 45 -55
-117 85 -136 276 -520 354 -712 128 -318 229 -483 397 -648 59 -57 59 -58 48
-93 -17 -51 -5 -96 38 -144 33 -37 44 -43 90 -48 l52 -5 0 -248 0 -249 -212 1
c-120 1 -198 5 -178 9 19 4 27 8 18 9 -13 1 -16 9 -14 36 l4 35 -202 1 c-110
1 -212 0 -226 -1 -36 -3 -60 -28 -60 -64 l0 -31 -182 -4 c-190 -3 -218 -8
-256 -44 -52 -48 -52 -48 -52 -475 l0 -399 29 -40 c54 -75 41 -73 569 -73
l470 0 15 -24 c33 -50 67 -56 299 -56 l215 0 17 143 c22 185 19 177 67 177 47
0 46 11 15 -173 -12 -75 -20 -139 -18 -142 9 -8 482 -6 482 3 0 11 -39 254
-45 279 -5 21 -2 23 40 23 25 0 45 -4 45 -8 0 -4 9 -70 20 -147 11 -77 20
-143 20 -147 0 -5 70 -8 155 -8 l156 0 -6 -47 c-18 -152 -23 -219 -16 -226 9
-9 87 -14 95 -6 3 3 20 65 39 139 32 130 34 135 61 138 16 2 36 -4 46 -13 18
-16 19 -15 30 27 6 23 15 57 20 73 14 46 98 377 103 405 3 14 17 71 32 127 15
56 28 110 29 120 2 15 15 19 72 21 67 3 150 -6 128 -15 -12 -4 42 -224 58
-234 7 -4 7 -8 0 -10 -9 -4 22 -138 98 -416 l22 -83 783 0 782 0 47 183 c26
100 56 212 65 249 10 37 16 70 13 73 -3 3 -57 6 -121 7 -108 1 -111 2 -41 7
55 4 68 8 50 13 -31 10 -117 10 -161 1 -28 -5 -30 -7 -14 -14 17 -6 16 -8 -7
-8 -20 -1 -26 3 -22 14 5 12 -3 15 -35 15 -39 0 -55 -13 -28 -23 6 -3 -26 -5
-73 -5 -47 0 -75 3 -62 5 18 4 22 11 22 44 0 21 -4 39 -10 39 -5 0 -10 13 -10
29 0 17 -4 33 -10 36 -5 3 -10 -1 -10 -9 0 -26 -17 -27 -41 -1 -17 18 -35 25
-61 25 -36 0 -38 2 -44 40 -4 22 -10 40 -15 40 -5 0 -9 18 -9 40 0 29 4 40 15
40 10 0 15 10 15 30 0 23 4 30 20 30 11 0 20 5 20 10 0 6 -9 10 -20 10 -11 0
-20 -4 -20 -10 0 -5 -9 -10 -20 -10 -11 0 -20 5 -20 10 0 6 -9 10 -20 10 -11
0 -20 5 -20 10 0 6 -27 10 -60 10 -52 0 -60 2 -60 19 0 11 10 22 23 26 21 7
21 7 2 12 -10 3 -21 0 -23 -6 -5 -14 -82 -15 -82 -1 0 6 -9 10 -20 10 -11 0
-20 -4 -20 -10 0 -5 -7 -10 -15 -10 -8 0 -15 5 -15 10 0 6 5 10 10 10 6 0 10
18 10 40 0 29 -4 40 -15 40 -11 0 -15 11 -15 39 0 35 3 39 28 42 15 2 39 3 55
1 24 -3 27 -7 27 -43 0 -26 4 -39 14 -39 15 0 28 87 19 133 -6 30 -29 36 -36
10 -4 -17 -5 -17 -6 0 -1 20 -17 23 -25 5 -3 -7 -3 -3 0 10 5 22 3 24 -51 26
-17 1 -21 10 -25 71 -3 41 -13 86 -24 108 l-20 37 -68 0 -68 0 0 38 c0 31 -5
41 -25 52 -14 7 -28 10 -32 5 -5 -4 -2 -10 5 -12 12 -5 18 -83 6 -83 -3 0 -22
18 -43 40 -20 22 -44 40 -52 40 -9 0 -21 11 -27 25 -6 14 -16 25 -21 25 -13 0
-61 48 -61 61 0 5 -11 15 -25 21 -30 14 -34 48 -5 48 11 0 20 -4 20 -10 0 -5
14 -10 30 -10 28 0 30 -2 30 -40 0 -33 3 -40 20 -40 17 0 20 7 20 40 0 24 -5
40 -12 40 -9 0 -9 3 -1 11 8 8 19 8 40 1 17 -6 21 -11 11 -11 -27 -1 -26 -81
1 -81 10 0 21 -9 24 -20 5 -20 37 -29 37 -10 0 6 18 10 40 10 38 0 40 -2 40
-30 0 -27 3 -30 34 -30 19 0 40 -2 48 -3 7 -2 10 -2 6 0 -5 3 -8 16 -8 29 0
17 -5 24 -20 24 -11 0 -23 7 -26 15 -4 8 -12 15 -20 15 -8 0 -14 7 -14 15 0
11 11 15 40 15 22 0 40 5 40 10 0 6 -18 10 -40 10 -44 0 -58 26 -18 32 22 3
22 3 2 22 -19 20 -19 20 -22 -2 -2 -14 -10 -22 -23 -22 -16 0 -19 7 -19 40 0
33 -3 40 -20 40 -14 0 -20 -7 -20 -22 l0 -21 -23 21 c-13 12 -30 22 -38 22 -8
0 -23 7 -33 15 -17 13 -18 15 -3 15 9 0 17 4 17 9 0 5 9 13 20 16 11 4 18 10
15 15 -3 5 3 10 12 12 15 3 13 8 -12 33 -29 29 -30 30 -33 8 -3 -21 -9 -23
-66 -23 -76 0 -96 16 -96 78 0 35 -3 42 -20 42 -11 0 -20 5 -20 10 0 6 -9 10
-20 10 -11 0 -20 5 -20 10 0 6 -18 10 -40 10 l-40 0 0 59 0 59 80 7 80 7 0 34
c0 32 -2 34 -36 34 -20 0 -33 4 -29 10 6 11 -42 26 -52 16 -4 -3 3 -6 15 -6
26 0 29 -15 5 -23 -10 -4 -28 -14 -40 -23 -23 -16 -23 -16 -23 30 l0 46 43 2
42 1 -45 7 c-46 6 -43 9 25 23 11 3 3 5 -18 6 -30 1 -40 6 -44 21 -6 23 -31
27 -39 5 -7 -17 -44 -21 -44 -5 0 6 -18 10 -40 10 -36 0 -40 3 -40 25 0 21 5
25 30 25 18 0 33 6 36 15 6 14 8 14 19 -1 6 -9 18 -14 26 -11 10 4 9 6 -4 6
-15 1 -17 7 -11 39 8 45 6 43 38 46 15 2 32 9 39 16 10 10 9 12 -5 7 -10 -3
-20 -2 -24 4 -3 5 -15 7 -27 3 -19 -6 -20 -5 -9 9 15 17 0 33 -20 21 -7 -5 -8
-3 -3 6 6 9 4 11 -5 5 -8 -5 -11 -4 -6 3 3 6 1 14 -5 18 -7 4 -9 3 -5 -4 3 -6
-2 -16 -11 -22 -12 -7 -13 -10 -3 -7 20 5 39 -16 37 -40 -1 -25 -26 -26 -54
-1 -27 25 -44 16 -41 -22 2 -25 5 -27 26 -19 27 10 42 4 42 -17 0 -8 -4 -12
-10 -9 -5 3 -10 2 -10 -3 0 -12 -34 -11 -42 2 -5 6 -8 1 -8 -11 0 -20 -5 -23
-35 -23 -41 0 -45 12 -10 28 45 21 42 92 -6 107 -36 12 6 31 62 28 43 -1 49 0
38 13 -7 8 -18 13 -25 10 -8 -3 -20 1 -28 9 -8 8 -19 15 -25 15 -6 0 -11 9
-11 19 0 11 -5 23 -10 26 -6 4 -7 11 -4 17 5 7 1 9 -9 5 -11 -4 -14 -2 -10 9
6 16 -14 19 -36 5 -10 -6 -10 -10 -1 -16 20 -12 -9 -25 -42 -18 -15 3 -28 4
-28 2 0 -2 4 -19 9 -37 11 -38 9 -39 -18 -10 -16 17 -18 24 -9 35 10 12 7 12
-14 2 -15 -6 -25 -18 -23 -28 1 -9 -2 -22 -8 -28 -6 -9 -6 -13 3 -13 8 0 11
-3 7 -6 -3 -3 -11 -3 -17 1 -8 5 -8 10 0 20 8 9 8 15 0 20 -13 8 -32 -4 -25
-16 3 -5 -2 -6 -11 -2 -12 4 -15 3 -10 -6 4 -6 4 -11 -1 -10 -18 3 -30 -3 -63
-32 -19 -17 -27 -29 -18 -26 9 3 19 1 21 -6 3 -9 8 -8 20 2 11 8 17 9 17 2 0
-15 -57 -43 -65 -31 -3 6 2 10 12 11 14 0 14 2 -4 9 -13 5 -23 13 -23 18 0 5
52 44 116 86 64 43 113 73 109 67 -3 -6 1 -11 9 -11 8 0 18 5 22 12 4 7 3 8
-4 4 -7 -4 -12 -3 -12 3 0 14 18 23 22 10 4 -12 38 -1 38 12 0 4 -7 5 -17 2
-11 -4 -14 -3 -9 5 12 21 27 14 95 -46 88 -78 168 -132 270 -181 47 -23 81
-41 75 -41 -5 0 -2 -4 6 -10 12 -8 12 -10 -4 -16 -10 -4 -21 -2 -25 5 -4 7
-17 13 -29 14 -11 0 -19 4 -16 8 2 4 14 5 27 3 20 -4 20 -4 2 4 -26 12 -42 5
-48 -18 -7 -25 1 -31 24 -17 14 9 21 9 31 -2 11 -11 9 -12 -9 -6 -14 4 -23 2
-23 -4 0 -6 8 -11 18 -11 27 0 67 25 64 40 -2 8 3 10 15 5 56 -22 181 -47 266
-54 169 -14 334 9 485 66 35 13 68 20 74 17 6 -4 8 -2 5 3 -8 13 20 26 36 16
7 -3 9 -3 5 2 -4 4 25 28 65 53 39 24 81 53 93 63 23 21 39 25 28 7 -4 -7 -3
-8 5 -4 6 4 9 11 7 15 -7 11 72 84 83 77 5 -4 13 -1 17 5 4 8 3 9 -4 5 -24
-15 -11 8 34 58 26 28 51 50 56 48 5 -1 7 2 3 8 -3 5 8 30 25 56 44 63 115
217 134 287 8 33 16 60 18 62 3 3 698 22 953 26 61 1 115 8 138 17 29 11 41
12 50 3 13 -13 93 -15 102 -2 3 6 17 6 36 -1 17 -6 52 -8 80 -4 38 5 60 2 93
-12 150 -67 177 -319 141 -1322 -8 -223 -18 -515 -21 -650 l-7 -245 36 -105
c40 -118 74 -266 63 -277 -6 -7 -168 -8 -416 -3 -116 3 -463 -38 -593 -69 -88
-21 -114 -39 -123 -87 l-6 -34 -74 0 c-61 0 -74 -3 -74 -16 0 -14 79 -330 100
-399 5 -16 14 -50 20 -74 9 -32 14 -41 23 -32 6 6 27 11 47 11 l35 0 32 -132
c18 -72 38 -135 45 -140 11 -7 87 -1 96 7 3 2 -11 140 -23 228 l-5 37 155 0
c85 0 155 1 155 3 0 1 9 72 20 157 11 85 20 156 20 158 0 1 20 2 45 2 42 0 45
-2 40 -22 -7 -33 -45 -271 -45 -285 0 -10 56 -13 246 -13 l246 0 -6 27 c-12
56 -46 286 -44 289 2 1 19 5 39 9 44 8 41 17 65 -180 l18 -145 214 0 c174 0
220 3 247 16 48 22 67 48 75 98 9 59 -8 97 -56 130 -38 26 -42 26 -216 26
l-177 0 15 28 c8 15 14 55 14 92 0 36 3 129 7 207 5 110 9 143 20 143 7 0 13
-5 13 -11 0 -7 6 -8 18 -3 9 5 160 11 334 14 300 5 318 6 344 26 62 46 69 65
70 192 1 69 -1 99 -5 72 -3 -25 -9 -40 -13 -35 -4 6 -33 10 -65 9 -38 -2 -66
3 -81 13 -22 13 -24 13 -29 -6 -7 -27 -23 -17 -23 15 0 22 -3 23 -20 14 -11
-6 -20 -16 -20 -22 0 -7 5 -6 15 2 13 11 15 1 15 -83 0 -131 -7 -138 -124
-141 -73 -2 -92 1 -112 17 -22 17 -24 25 -25 125 -1 66 -4 97 -9 82 -7 -24 -7
-23 -12 10 -3 19 -6 -15 -6 -77 -1 -61 -6 -114 -12 -118 -5 -3 -7 -12 -4 -20
5 -12 -3 -14 -37 -12 l-44 3 -2 49 c-2 28 -5 77 -8 110 l-6 60 -74 0 c-58 0
-75 -3 -79 -15 -3 -8 -3 100 0 240 2 140 4 261 4 268 0 6 4 11 9 10 19 -6 152
102 267 217 118 117 204 222 278 338 36 55 49 66 60 48 7 -11 -87 -152 -167
-249 -105 -129 -267 -283 -389 -371 -40 -29 -48 -40 -48 -65 1 -44 26 -133 33
-116 4 11 6 10 6 -3 1 -11 6 -15 13 -11 7 4 8 3 4 -4 -4 -7 -15 -12 -24 -12
-15 -1 -15 -2 1 -11 40 -23 221 86 334 202 150 153 239 309 329 574 33 97 46
124 50 108 4 -13 10 -23 15 -23 5 0 3 13 -6 29 -14 27 -13 39 11 147 32 150
30 176 -14 185 -29 6 -33 4 -40 -21 -10 -41 -199 -248 -294 -324 -96 -77 -226
-150 -214 -120 172 423 262 863 296 1439 19 330 5 854 -30 1140 -6 44 -10 85
-10 92 0 7 -6 13 -13 13 -7 0 -37 -59 -67 -132z m-3115 -119 c72 -13 215 -59
215 -69 0 -4 -29 3 -64 16 -122 44 -215 57 -375 51 -119 -4 -163 -9 -236 -31
-180 -53 -323 -137 -442 -258 -110 -111 -175 -208 -228 -343 -31 -79 -65 -229
-65 -292 0 -24 -5 -43 -10 -43 -6 0 -8 10 -6 23 3 12 8 50 11 84 24 248 181
513 399 675 227 169 516 236 801 187z m-80 -80 c289 -35 545 -201 690 -447 47
-79 100 -227 111 -308 l6 -52 -153 -6 c-85 -3 -354 -10 -599 -16 -245 -5 -514
-13 -598 -16 l-152 -6 26 -31 c14 -17 30 -42 35 -55 7 -19 13 -22 32 -16 12 4
29 7 37 6 135 -11 277 -10 775 6 325 10 593 17 596 16 3 -2 2 -36 -3 -76 -46
-385 -322 -688 -716 -785 -106 -26 -313 -23 -426 6 -321 83 -543 290 -657 611
-33 92 -34 99 -34 250 0 119 5 171 19 224 47 176 125 309 255 436 172 168 377
254 636 268 17 1 71 -3 120 -9z m-2814 -599 c16 -69 32 -133 35 -142 3 -10 2
-18 -3 -18 -16 0 -104 358 -102 415 1 30 4 17 70 -255z m1617 -394 c1 -6 4
-36 7 -66 6 -51 5 -54 -9 -36 -9 11 -16 16 -16 12 0 -4 -5 -4 -12 0 -8 5 -6
10 8 16 19 8 -188 5 -795 -12 -318 -9 -337 -11 -380 -32 -60 -30 -83 -72 -85
-151 0 -34 1 -237 2 -452 2 -214 0 -391 -5 -393 -9 -2 -25 597 -21 794 3 126
4 132 31 167 31 41 83 71 137 80 19 3 260 11 535 18 376 9 507 15 530 25 17 8
21 12 10 9 -15 -4 -21 0 -22 13 -1 14 7 17 41 18 24 0 43 -4 44 -10z m117
-194 c-7 -7 -25 47 -24 71 1 14 6 5 15 -22 8 -25 12 -47 9 -49z m-158 -6 c3
-3 -5 -6 -18 -7 -22 0 -23 -1 -4 -9 14 -6 0 -8 -45 -8 -59 1 -62 1 -25 9 l40
7 -47 -1 c-25 -1 -44 1 -42 5 2 4 -8 8 -23 11 -16 2 14 3 65 2 51 -1 95 -5 99
-9z m28 -7 c-5 -15 -4 -19 4 -15 6 4 11 14 11 22 0 8 6 14 14 14 9 0 21 -22
31 -57 18 -62 82 -197 116 -245 l20 -28 -28 -12 c-15 -7 -44 -22 -63 -33 -80
-48 -193 -105 -170 -85 14 12 38 26 53 32 26 10 27 11 10 25 -17 13 -16 13 3
4 16 -8 30 -7 53 5 17 9 29 19 26 24 -7 11 22 33 35 25 32 -20 50 60 19 89 -8
8 -10 6 -5 -10 4 -14 1 -26 -11 -35 -9 -8 -14 -9 -10 -3 4 7 0 14 -8 18 -8 3
-17 1 -20 -3 -7 -13 23 -34 40 -28 8 4 17 1 21 -5 9 -14 -85 -1 -103 14 -9 7
-13 41 -13 102 0 61 3 86 10 76 7 -11 12 -12 21 -3 8 8 8 19 0 40 -11 28 -11
28 -6 -7 4 -30 4 -32 -5 -12 -5 13 -7 34 -4 47 3 13 1 32 -6 42 -10 16 -11 16
-6 1 3 -12 0 -18 -10 -18 -11 0 -14 -6 -9 -22 5 -19 4 -20 -5 -8 -9 13 -10 12
-7 -5 2 -11 9 -19 15 -17 17 3 15 -24 -4 -42 -19 -20 -31 -21 -15 -2 9 11 10
20 1 36 -6 11 -8 30 -5 40 4 12 2 20 -6 20 -8 0 -9 3 0 13 6 8 8 17 4 20 -3 4
-1 7 6 7 8 0 10 -7 6 -21z m-400 1 c-3 -5 -12 -10 -18 -10 -7 0 -6 4 3 10 19
12 23 12 15 0z m194 -6 c10 -9 -35 -3 -49 6 -11 8 -7 9 15 4 17 -4 32 -8 34
-10z m-326 -1 c-7 -2 -19 -2 -25 0 -7 3 -2 5 12 5 14 0 19 -2 13 -5z m382 -23
c13 -6 2 -7 -30 -3 -27 3 -52 7 -54 9 -9 8 65 2 84 -6z m-127 -7 c-10 -2 -26
-2 -35 0 -10 3 -2 5 17 5 19 0 27 -2 18 -5z m185 -10 c-7 -2 -19 -2 -25 0 -7
3 -2 5 12 5 14 0 19 -2 13 -5z m47 -33 c0 -22 -4 -40 -10 -40 -5 0 -10 18 -10
40 0 22 5 40 10 40 6 0 10 -18 10 -40z m-87 -17 c-7 -2 -19 -2 -25 0 -7 3 -2
5 12 5 14 0 19 -2 13 -5z m123 -181 c-11 -10 -13 3 -7 43 l6 40 3 -39 c2 -21
1 -41 -2 -44z m-1987 -101 c110 -219 229 -406 413 -650 70 -92 108 -150 106
-163 -6 -41 -292 349 -437 596 -67 113 -151 281 -151 301 0 36 23 8 69 -84z
m1961 5 c-7 -7 -13 -7 -20 0 -6 6 -3 10 10 10 13 0 16 -4 10 -10z m-22 -38
c-7 -4 -17 -8 -23 -8 -5 0 -4 4 4 9 9 6 10 11 2 15 -6 4 -11 12 -11 18 0 6 9
3 20 -7 16 -14 17 -20 8 -27z m-43 -47 c2 -4 -31 -27 -73 -50 -42 -23 -84 -46
-92 -52 -63 -39 -150 -82 -150 -74 0 3 32 22 71 42 99 52 110 59 109 68 -1 3
2 10 6 13 4 4 4 1 0 -5 -10 -18 9 -16 24 2 10 12 9 15 -6 15 -15 0 -12 5 11
20 17 11 37 20 45 19 9 0 6 -4 -6 -9 -21 -8 -42 -30 -29 -30 3 0 22 7 42 15
34 15 35 16 17 30 -18 13 -18 14 4 8 12 -3 24 -9 27 -12z m-115 -11 c0 -5 -2
-10 -4 -10 -3 0 -8 5 -11 10 -3 6 -1 10 4 10 6 0 11 -4 11 -10z m533 -37 c4
-3 1 -13 -5 -21 -10 -11 -9 -17 4 -26 15 -11 15 -14 2 -28 -12 -12 -22 -13
-49 -4 -37 11 -50 32 -15 23 11 -3 20 -1 20 5 0 5 5 6 10 3 6 -3 10 -1 10 4 0
6 -9 11 -20 11 -27 0 -25 14 3 28 27 13 32 14 40 5z m17 -83 c0 -5 -5 -10 -11
-10 -5 0 -7 5 -4 10 3 6 8 10 11 10 2 0 4 -4 4 -10z m-363 -54 c0 -8 -3 -14
-6 -13 -16 4 -57 -30 -56 -47 0 -11 -7 -21 -15 -23 -12 -4 -12 -3 -1 5 9 7 10
11 2 17 -7 4 -20 1 -29 -6 -13 -10 -14 -10 -6 0 9 9 66 51 110 80 0 1 1 -5 1
-13z m-429 -20 c-2 -1 -12 -8 -23 -16 -18 -14 -19 -13 -8 1 7 9 10 19 6 23 -4
4 1 4 10 0 10 -3 17 -7 15 -8z m-90 -51 c-2 -1 -14 -8 -28 -14 -22 -11 -23
-10 -8 2 10 8 15 17 11 21 -4 4 1 4 10 0 10 -3 17 -8 15 -9z m362 -35 c-19
-16 -39 -29 -44 -30 -5 0 -23 -10 -40 -23 -39 -29 -65 -44 -51 -29 12 12 158
112 165 112 2 0 -11 -13 -30 -30z m-450 -15 c0 -7 -81 -47 -86 -43 -2 3 15 14
39 26 46 24 47 24 47 17z m450 -45 c0 -5 -5 -10 -11 -10 -5 0 -7 5 -4 10 3 6
8 10 11 10 2 0 4 -4 4 -10z m-550 -4 c0 -3 -4 -8 -10 -11 -5 -3 -10 -1 -10 4
0 6 5 11 10 11 6 0 10 -2 10 -4z m-35 -15 c3 -6 -5 -15 -17 -21 -21 -10 -22
-10 -5 3 14 11 15 16 5 20 -9 4 -9 6 -1 6 6 1 14 -3 18 -8z m432 -18 c-4 -3
-2 -12 4 -19 7 -8 6 -14 -2 -20 -7 -4 -9 -3 -5 4 3 6 2 13 -4 17 -10 6 -5 25
7 25 4 0 3 -3 0 -7z m-507 -38 c-14 -8 -29 -14 -35 -14 -5 0 1 6 15 14 14 8
30 14 35 14 6 0 -1 -6 -15 -14z m445 -3 c-6 -4 -22 -18 -37 -31 -16 -14 -28
-20 -28 -15 0 5 15 19 33 32 30 21 52 31 32 14z m-495 -17 c0 -2 -10 -9 -22
-15 -22 -11 -22 -10 -4 4 21 17 26 19 26 11z m415 -45 c-3 -5 -11 -10 -16 -10
-6 0 -7 5 -4 10 3 6 11 10 16 10 6 0 7 -4 4 -10z m-40 -20 c-3 -5 -16 -15 -28
-21 -19 -9 -19 -8 3 10 28 23 34 26 25 11z m1185 -15 c10 -13 9 -15 -9 -15
-12 0 -21 6 -21 15 0 8 4 15 9 15 5 0 14 -7 21 -15z m-1113 -1 c-3 -3 -12 -4
-19 -1 -8 3 -5 6 6 6 11 1 17 -2 13 -5z m-130 -29 c0 -8 -4 -12 -9 -9 -5 3 -6
10 -3 15 9 13 12 11 12 -6z m-87 -48 c0 -2 -10 -12 -22 -23 l-23 -19 19 23
c18 21 26 27 26 19z m-570 -97 c-8 -5 -19 -10 -25 -10 -5 0 -3 5 5 10 8 5 20
10 25 10 6 0 3 -5 -5 -10z m-91 -54 c-2 -2 -58 -35 -125 -74 -119 -70 -144
-95 -144 -142 0 -37 23 -69 64 -89 23 -11 35 -20 28 -21 -22 0 -70 28 -86 52
-26 36 -20 93 12 127 27 30 243 163 251 155 2 -2 2 -6 0 -8z m984 -13 c-13 -2
-33 -2 -45 0 -13 2 -3 4 22 4 25 0 35 -2 23 -4z m162 -3 c-3 -5 -14 -10 -23
-9 -14 0 -13 2 3 9 27 11 27 11 20 0z m-88 -6 c-3 -3 -12 -4 -19 -1 -8 3 -5 6
6 6 11 1 17 -2 13 -5z m-204 -28 c-10 -13 -20 -22 -22 -20 -4 4 29 44 36 44 2
0 -4 -11 -14 -24z m364 -38 c-3 -8 -6 -5 -6 6 -1 11 2 17 5 13 3 -3 4 -12 1
-19z m-460 -80 c-3 -8 -6 -5 -6 6 -1 11 2 17 5 13 3 -3 4 -12 1 -19z m476 7
c-3 -9 -8 -14 -10 -11 -3 3 -2 9 2 15 9 16 15 13 8 -4z m-37 -7 c4 -7 4 -10 0
-6 -4 3 -23 0 -42 -8 -19 -8 -34 -12 -34 -9 0 4 19 14 67 34 1 1 5 -5 9 -11z
m-148 -8 l65 0 -7 -72 c-7 -81 -31 -164 -54 -190 -20 -23 -68 -23 -115 1 -32
16 -38 17 -49 4 -9 -11 -9 -16 1 -23 9 -5 10 -10 2 -14 -6 -4 -11 -2 -11 3 0
6 -6 11 -13 11 -7 0 -37 16 -67 36 l-55 36 45 -41 c25 -22 39 -40 32 -41 -7 0
-10 -5 -7 -11 4 -6 13 -8 21 -5 8 3 14 3 14 0 0 -2 -11 -9 -25 -14 -25 -9 -25
-12 -19 -73 4 -41 2 -71 -5 -86 -9 -15 -9 -26 -1 -39 9 -15 10 -14 5 6 -4 12
-4 22 -1 22 8 0 35 -103 29 -112 -3 -5 3 -18 12 -28 9 -10 14 -24 10 -30 -4
-7 -16 1 -31 21 -13 19 -24 26 -24 18 0 -8 5 -20 11 -26 14 -14 -2 -74 -31
-110 -27 -35 -98 -129 -193 -255 -48 -64 -80 -98 -97 -102 -87 -20 -334 -15
-357 7 -8 9 30 165 69 276 48 138 73 189 144 299 76 117 303 342 345 342 9 0
22 7 30 16 7 8 25 22 41 30 26 13 27 16 13 30 -25 25 -17 25 21 -1 20 -14 40
-22 45 -19 5 3 6 30 3 60 -6 50 -5 54 14 54 15 0 23 -8 28 -27 10 -45 12 -50
13 -21 1 15 6 39 11 54 9 23 14 26 41 20 18 -3 61 -6 97 -6z m1027 -364 c8 -3
26 5 42 17 15 12 23 15 16 7 -9 -12 -8 -20 4 -35 15 -20 15 -20 9 2 -4 12 -2
24 3 28 7 3 8 0 5 -9 -3 -9 -1 -16 5 -16 6 0 11 5 11 12 0 6 9 3 20 -7 17 -16
28 -45 16 -45 -14 0 -36 14 -36 22 0 6 7 4 17 -3 14 -12 16 -12 11 1 -8 26
-32 16 -39 -15 -5 -21 -7 -24 -9 -10 -1 14 -5 9 -13 -15 -6 -19 -16 -38 -21
-42 -7 -5 -7 -8 2 -8 9 0 10 -5 2 -19 -13 -26 -13 -31 4 -31 7 0 16 -10 19
-22 6 -22 6 -22 -8 -4 -8 11 -15 16 -15 10 0 -5 -4 -3 -9 5 -7 11 -10 9 -16
-8 -3 -12 -11 -19 -16 -16 -8 6 -47 -75 -40 -84 1 -2 -2 -7 -7 -10 -5 -3 -30
-51 -56 -105 -38 -82 -44 -102 -34 -115 12 -14 11 -14 -4 -2 -16 12 -18 11
-20 -5 0 -11 0 -28 0 -39 2 -15 0 -16 -7 -7 -7 11 -9 11 -14 -2 -6 -14 -45
-16 -347 -16 -193 0 -340 4 -340 9 0 15 28 21 91 21 55 0 60 2 54 19 -5 16 2
21 47 31 115 24 129 24 190 -8 31 -17 54 -33 51 -36 -4 -3 33 -6 80 -6 63 0
87 3 87 13 0 9 2 9 8 0 9 -15 62 86 62 118 0 11 4 18 9 15 4 -3 20 22 34 55
14 32 20 57 14 53 -7 -3 -4 1 5 9 20 16 55 93 39 82 -6 -3 -11 -1 -11 4 0 6 6
11 13 11 7 0 21 16 30 36 12 23 13 33 5 28 -7 -4 -5 2 5 14 11 12 16 26 11 33
-4 7 -3 10 3 6 5 -3 17 9 26 28 16 33 16 36 -2 47 -12 7 -17 18 -13 27 6 14 7
14 10 -1 2 -9 9 -19 17 -22z m25 18 c0 -8 -19 -13 -24 -6 -3 5 1 9 9 9 8 0 15
-2 15 -3z m410 -78 c0 -24 -17 -28 -23 -6 -3 13 0 20 9 20 8 0 14 -6 14 -14z
m-363 -38 c-3 -8 -6 -5 -6 6 -1 11 2 17 5 13 3 -3 4 -12 1 -19z m41 6 c4 2 7
-9 8 -25 1 -16 -3 -29 -7 -29 -5 0 -9 6 -9 13 0 6 -3 23 -5 37 -3 14 -3 19 1
12 3 -6 9 -10 12 -8z m127 -44 c-3 -5 -13 -10 -21 -10 -8 0 -14 5 -14 10 0 6
9 10 21 10 11 0 17 -4 14 -10z m-1478 -22 c-3 -8 -6 -5 -6 6 -1 11 2 17 5 13
3 -3 4 -12 1 -19z m1523 -8 c0 -21 -24 -28 -35 -10 -8 14 3 30 21 30 8 0 14
-9 14 -20z m-45 -30 c3 -5 -3 -10 -14 -10 -12 0 -21 5 -21 10 0 6 6 10 14 10
8 0 18 -4 21 -10z m205 -50 l0 -40 -40 0 c-34 0 -40 3 -40 21 0 16 -4 19 -21
14 -19 -6 -48 16 -49 38 0 4 34 7 75 7 l75 0 0 -40z m27 8 c-3 -7 -5 -2 -5 12
0 14 2 19 5 13 2 -7 2 -19 0 -25z m-457 -34 c0 -3 -6 -1 -13 5 -8 6 -17 8 -21
4 -4 -4 -4 0 -1 10 6 14 9 14 21 2 8 -7 14 -17 14 -21z m-172 -69 c-6 -14 -13
-23 -15 -21 -5 5 15 46 22 46 3 0 -1 -11 -7 -25z m94 -57 c-6 -6 -12 -6 -17 3
-6 8 -4 10 5 4 9 -5 10 -1 6 16 -6 21 -6 22 5 6 7 -13 8 -22 1 -29z m25 20
c-3 -8 -6 -5 -6 6 -1 11 2 17 5 13 3 -3 4 -12 1 -19z m-214 -85 c-3 -7 -6 -13
-8 -13 -2 0 -5 6 -8 13 -3 8 1 14 8 14 7 0 11 -6 8 -14z m890 -60 c-7 -2 -19
-2 -25 0 -7 3 -2 5 12 5 14 0 19 -2 13 -5z m-920 -20 c-7 -2 -21 -2 -30 0 -10
3 -4 5 12 5 17 0 24 -2 18 -5z m223 -19 c-4 -11 -2 -15 6 -11 9 3 14 -6 15
-27 0 -17 -1 -24 -4 -16 -3 8 -17 25 -31 38 -16 13 -20 20 -9 16 9 -3 17 -1
17 5 0 6 3 11 6 11 3 0 3 -7 0 -16z m544 -84 c0 -22 -4 -40 -10 -40 -11 0 -13
39 -4 64 10 26 14 19 14 -24z m77 34 c-3 -3 -12 -4 -19 -1 -8 3 -5 6 6 6 11 1
17 -2 13 -5z m43 -31 c0 -20 -3 -33 -7 -29 -11 11 -12 66 -2 66 5 0 9 -16 9
-37z m-633 -25 c-3 -7 -5 -2 -5 12 0 14 2 19 5 13 2 -7 2 -19 0 -25z m583 -25
c-1 -5 -7 -19 -15 -33 l-14 -25 -1 33 c0 22 5 32 15 32 8 0 15 -3 15 -7z m50
-25 l-1 -33 -14 25 c-18 32 -18 40 0 40 10 0 15 -10 15 -32z m-847 15 c-7 -2
-19 -2 -25 0 -7 3 -2 5 12 5 14 0 19 -2 13 -5z m144 0 c-20 -2 -52 -2 -70 0
-17 2 0 4 38 4 39 0 53 -2 32 -4z m-1114 -70 c-7 -2 -19 -2 -25 0 -7 3 -2 5
12 5 14 0 19 -2 13 -5z m1917 -23 c0 -34 -15 -38 -70 -19 l-33 12 34 18 c51
27 69 25 69 -11z m60 0 c0 -16 -4 -30 -10 -30 -5 0 -10 14 -10 30 0 17 5 30
10 30 6 0 10 -13 10 -30z m-1713 -16 c-3 -3 -12 -4 -19 -1 -8 3 -5 6 6 6 11 1
17 -2 13 -5z m50 -10 c-3 -3 -12 -4 -19 -1 -8 3 -5 6 6 6 11 1 17 -2 13 -5z
m100 -116 c-3 -7 -5 -2 -5 12 0 14 2 19 5 13 2 -7 2 -19 0 -25z"/>
<path d="M4010 4701 c0 -12 29 -23 41 -15 18 10 9 24 -16 24 -14 0 -25 -4 -25
-9z"/>
<path d="M3842 4220 c0 -14 2 -19 5 -12 2 6 2 18 0 25 -3 6 -5 1 -5 -13z"/>
<path d="M3860 4189 c0 -5 -4 -8 -8 -5 -5 3 -8 -13 -8 -34 0 -22 3 -35 7 -29
4 7 12 3 22 -11 14 -21 15 -20 12 12 -4 50 -4 50 -16 42 -8 -4 -9 0 -4 15 3
11 4 21 1 21 -3 0 -6 -5 -6 -11z m20 -50 c0 -14 -17 -10 -23 5 -4 10 -1 13 9
9 7 -3 14 -9 14 -14z"/>
<path d="M3926 4053 c-6 -14 -5 -15 5 -6 7 7 10 15 7 18 -3 3 -9 -2 -12 -12z"/>
<path d="M3855 4020 c-3 -5 -2 -10 4 -10 5 0 13 5 16 10 3 6 2 10 -4 10 -5 0
-13 -4 -16 -10z"/>
<path d="M3220 2660 c0 -5 5 -10 11 -10 5 0 7 5 4 10 -3 6 -8 10 -11 10 -2 0
-4 -4 -4 -10z"/>
<path d="M3190 2483 c0 -4 7 -27 17 -51 12 -33 18 -40 25 -29 5 10 1 28 -13
51 -20 35 -29 43 -29 29z"/>
<path d="M3251 2403 c-1 -12 4 -25 9 -28 12 -7 12 2 0 30 -8 19 -9 19 -9 -2z"/>
<path d="M4536 2463 c-6 -14 -5 -15 5 -6 7 7 10 15 7 18 -3 3 -9 -2 -12 -12z"/>
<path d="M6600 5843 c0 -9 90 -179 105 -199 12 -15 14 -15 9 -2 -11 33 45 94
62 66 4 -6 3 -8 -2 -5 -6 3 -16 2 -24 -3 -11 -7 -6 -8 15 -7 24 2 61 -19 175
-97 175 -120 169 -115 148 -127 -11 -6 -15 -16 -11 -26 6 -15 7 -14 14 3 6 16
9 14 20 -15 l12 -35 24 54 c12 29 23 58 23 66 0 7 -74 55 -164 106 -161 92
-164 94 -143 111 12 9 33 17 47 18 18 1 13 4 -20 14 -243 69 -290 82 -290 78z"/>
<path d="M7224 5301 c11 -11 23 -21 28 -21 14 0 -1 19 -25 31 -22 12 -22 12
-3 -10z"/>
<path d="M7280 5261 c0 -10 30 -24 37 -17 3 2 -5 9 -16 16 -12 6 -21 7 -21 1z"/>
<path d="M7362 5215 c9 -10 21 -16 28 -13 7 2 -1 10 -16 17 -27 12 -28 11 -12
-4z"/>
<path d="M7440 5180 c8 -5 22 -10 30 -10 13 0 13 1 0 10 -8 5 -22 10 -30 10
-13 0 -13 -1 0 -10z"/>
<path d="M7510 5160 c0 -4 9 -10 20 -13 11 -3 20 -2 20 3 0 4 -9 10 -20 13
-11 3 -20 2 -20 -3z"/>
<path d="M7590 5140 c0 -4 9 -10 20 -13 11 -3 20 -2 20 3 0 4 -9 10 -20 13
-11 3 -20 2 -20 -3z"/>
<path d="M7675 5120 c3 -5 16 -10 28 -9 21 0 21 1 2 9 -28 12 -37 12 -30 0z"/>
<path d="M7758 5108 c6 -6 18 -8 28 -6 14 3 12 5 -9 10 -19 3 -25 2 -19 -4z"/>
<path d="M8345 5110 c-17 -7 -14 -9 13 -9 20 -1 31 3 27 9 -7 12 -13 12 -40 0z"/>
<path d="M8420 5110 c0 -5 9 -9 20 -7 31 5 36 17 7 17 -15 0 -27 -4 -27 -10z"/>
<path d="M8513 5103 c9 -2 23 -2 30 0 6 3 -1 5 -18 5 -16 0 -22 -2 -12 -5z"/>
<path d="M8585 5090 c3 -5 16 -10 28 -9 21 0 21 1 2 9 -28 12 -37 12 -30 0z"/>
<path d="M8670 5060 c8 -5 22 -9 30 -9 10 0 8 3 -5 9 -27 12 -43 12 -25 0z"/>
<path d="M8740 5031 c0 -9 30 -24 36 -18 2 1 -6 8 -16 15 -11 7 -20 8 -20 3z"/>
<path d="M8810 4981 c0 -9 30 -24 36 -18 2 1 -6 8 -16 15 -11 7 -20 8 -20 3z"/>
<path d="M8870 4932 c0 -5 7 -15 15 -22 8 -7 15 -8 15 -2 0 5 -7 15 -15 22 -8
7 -15 8 -15 2z"/>
<path d="M8940 4850 c6 -11 13 -20 16 -20 2 0 0 9 -6 20 -6 11 -13 20 -16 20
-2 0 0 -9 6 -20z"/>
<path d="M8980 4795 c0 -5 5 -17 10 -25 5 -8 10 -10 10 -5 0 6 -5 17 -10 25
-5 8 -10 11 -10 5z"/>
<path d="M9017 4709 c4 -13 8 -18 11 -10 2 7 -1 18 -6 23 -8 8 -9 4 -5 -13z"/>
<path d="M9062 4545 c0 -16 2 -22 5 -12 2 9 2 23 0 30 -3 6 -5 -1 -5 -18z"/>
<path d="M9062 4465 c0 -16 2 -22 5 -12 2 9 2 23 0 30 -3 6 -5 -1 -5 -18z"/>
<path d="M9046 4395 c-3 -9 -6 -22 -5 -28 0 -7 5 -1 10 12 5 13 8 26 5 28 -2
2 -6 -3 -10 -12z"/>
<path d="M8976 4234 c-9 -24 -2 -26 12 -4 7 11 8 20 3 20 -5 0 -12 -7 -15 -16z"/>
<path d="M8929 4163 c-13 -16 -12 -17 4 -4 16 13 21 21 13 21 -2 0 -10 -8 -17
-17z"/>
<path d="M8874 4098 l-19 -23 23 19 c12 11 22 21 22 23 0 8 -8 2 -26 -19z"/>
<path d="M8816 4045 c-11 -8 -17 -17 -14 -20 2 -3 13 4 23 15 21 23 18 25 -9
5z"/>
<path d="M8749 3983 c-13 -16 -12 -17 4 -4 16 13 21 21 13 21 -2 0 -10 -8 -17
-17z"/>
<path d="M8695 3930 c-10 -11 -13 -20 -8 -20 13 0 38 29 31 35 -3 3 -13 -4
-23 -15z"/>
<path d="M4015 3870 c-3 -5 -1 -10 4 -10 6 0 11 5 11 10 0 6 -2 10 -4 10 -3 0
-8 -4 -11 -10z"/>
<path d="M8639 3863 c-13 -16 -12 -17 4 -4 16 13 21 21 13 21 -2 0 -10 -8 -17
-17z"/>
<path d="M4100 3866 c0 -2 7 -9 15 -16 9 -7 15 -8 15 -2 0 5 -7 12 -15 16 -8
3 -15 4 -15 2z"/>
<path d="M8582 3800 c-7 -11 -9 -20 -4 -20 4 0 13 9 20 20 7 11 9 20 4 20 -4
0 -13 -9 -20 -20z"/>
<path d="M4155 3800 c4 -6 11 -8 16 -5 14 9 11 15 -7 15 -8 0 -12 -5 -9 -10z"/>
<path d="M8540 3735 c-7 -9 -10 -18 -7 -21 3 -3 10 4 17 15 13 25 8 27 -10 6z"/>
<path d="M4340 3685 c-11 -13 -10 -14 4 -9 9 3 16 10 16 15 0 13 -6 11 -20 -6z"/>
<path d="M5290 3650 c-9 -6 -10 -10 -3 -10 6 0 15 5 18 10 8 12 4 12 -15 0z"/>
<path d="M4311 3634 c0 -11 3 -14 6 -6 3 7 2 16 -1 19 -3 4 -6 -2 -5 -13z"/>
<path d="M4511 3613 c12 -14 12 -16 -6 -11 -18 4 -20 0 -20 -44 0 -38 3 -48
15 -46 10 2 16 18 18 46 2 23 8 42 14 42 7 0 6 6 -2 15 -7 8 -17 15 -22 15 -6
0 -4 -8 3 -17z"/>
<path d="M5960 3590 c-9 -6 -10 -10 -3 -10 6 0 15 5 18 10 8 12 4 12 -15 0z"/>
<path d="M4668 3573 c7 -3 16 -2 19 1 4 3 -2 6 -13 5 -11 0 -14 -3 -6 -6z"/>
<path d="M4788 3563 c7 -3 16 -2 19 1 4 3 -2 6 -13 5 -11 0 -14 -3 -6 -6z"/>
<path d="M4888 3553 c6 -2 18 -2 25 0 6 3 1 5 -13 5 -14 0 -19 -2 -12 -5z"/>
<path d="M4768 3543 c7 -3 16 -2 19 1 4 3 -2 6 -13 5 -11 0 -14 -3 -6 -6z"/>
<path d="M4888 3533 c7 -3 16 -2 19 1 4 3 -2 6 -13 5 -11 0 -14 -3 -6 -6z"/>
<path d="M4578 3523 c7 -3 16 -2 19 1 4 3 -2 6 -13 5 -11 0 -14 -3 -6 -6z"/>
<path d="M4480 3464 c0 -9 5 -14 12 -12 18 6 21 28 4 28 -9 0 -16 -7 -16 -16z"/>
<path d="M4560 3320 c0 -5 18 -10 40 -10 22 0 40 5 40 10 0 6 -18 10 -40 10
-22 0 -40 -4 -40 -10z"/>
<path d="M4400 3295 c0 -9 9 -15 25 -15 23 0 25 -4 25 -40 0 -29 4 -40 15 -40
8 0 15 -4 15 -10 0 -5 14 -10 30 -10 21 0 30 5 30 16 0 9 -13 29 -30 44 -16
15 -30 37 -30 49 0 18 -6 21 -40 21 -29 0 -40 -4 -40 -15z"/>
<path d="M4580 3240 c0 -33 3 -40 20 -40 17 0 20 7 20 40 0 33 -3 40 -20 40
-17 0 -20 -7 -20 -40z"/>
<path d="M8571 3260 c14 -31 19 -36 19 -24 0 6 -7 19 -16 30 -14 18 -14 18 -3
-6z"/>
<path d="M4720 3250 c0 -5 5 -10 10 -10 6 0 10 5 10 10 0 6 -4 10 -10 10 -5 0
-10 -4 -10 -10z"/>
<path d="M4720 3210 c0 -5 10 -10 23 -10 18 0 19 2 7 10 -19 13 -30 13 -30 0z"/>
<path d="M8597 3179 c4 -13 8 -18 11 -10 2 7 -1 18 -6 23 -8 8 -9 4 -5 -13z"/>
<path d="M6544 3178 c-52 -25 -64 -124 -19 -154 23 -15 29 -15 89 6 60 22 66
22 89 7 21 -14 26 -28 34 -89 13 -104 8 -111 -74 -102 l-66 7 6 -51 c3 -27 13
-66 21 -87 18 -43 28 -43 128 2 l57 25 -6 113 c-6 107 -5 113 15 124 11 6 28
8 36 5 9 -3 16 -2 16 4 0 6 3 17 6 26 4 9 -5 25 -22 41 -21 19 -28 34 -26 55
6 50 -68 79 -114 45 -23 -17 -38 -19 -29 -4 4 6 -1 6 -12 -2 -17 -10 -23 -8
-46 15 -28 28 -49 31 -83 14z"/>
<path d="M4720 3156 c0 -16 110 -30 124 -16 7 7 2 10 -11 10 -12 0 -25 5 -28
10 -10 16 -85 13 -85 -4z"/>
<path d="M4560 3136 c0 -9 7 -16 16 -16 17 0 14 22 -4 28 -7 2 -12 -3 -12 -12z"/>
<path d="M4880 3139 c0 -5 5 -7 10 -4 6 3 10 8 10 11 0 2 -4 4 -10 4 -5 0 -10
-5 -10 -11z"/>
<path d="M8631 3004 c0 -11 3 -14 6 -6 3 7 2 16 -1 19 -3 4 -6 -2 -5 -13z"/>
<path d="M1437 2953 c-14 -13 -6 -54 13 -73 19 -19 33 -20 244 -20 l224 0 -2
50 -1 50 -236 0 c-130 0 -239 -3 -242 -7z"/>
<path d="M4880 2949 c0 -5 5 -7 10 -4 6 3 10 8 10 11 0 2 -4 4 -10 4 -5 0 -10
-5 -10 -11z"/>
<path d="M8632 2930 c0 -14 2 -19 5 -12 2 6 2 18 0 25 -3 6 -5 1 -5 -13z"/>
<path d="M4945 2890 c-3 -5 -1 -10 4 -10 6 0 11 5 11 10 0 6 -2 10 -4 10 -3 0
-8 -4 -11 -10z"/>
<path d="M8632 2850 c0 -14 2 -19 5 -12 2 6 2 18 0 25 -3 6 -5 1 -5 -13z"/>
<path d="M4978 2853 c12 -2 32 -2 45 0 12 2 2 4 -23 4 -25 0 -35 -2 -22 -4z"/>
<path d="M4960 2820 c0 -5 18 -10 40 -10 22 0 40 5 40 10 0 6 -18 10 -40 10
-22 0 -40 -4 -40 -10z"/>
<path d="M5081 2743 c0 -49 4 -110 9 -138 6 -38 8 -18 9 88 0 85 -3 137 -9
137 -6 0 -10 -35 -9 -87z"/>
<path d="M5040 2785 c0 -11 -11 -15 -40 -15 -22 0 -40 -4 -40 -10 0 -5 18 -10
40 -10 l40 0 0 -55 c0 -64 -19 -75 -22 -12 l-1 42 -4 -38 c-3 -24 2 -47 11
-62 13 -20 13 -25 1 -35 -21 -17 -19 -30 5 -30 19 0 20 7 20 120 0 66 -2 120
-5 120 -3 0 -5 -7 -5 -15z"/>
<path d="M8622 2765 c0 -16 2 -22 5 -12 2 9 2 23 0 30 -3 6 -5 -1 -5 -18z"/>
<path d="M4961 2652 c-1 -55 2 -73 12 -69 13 4 13 11 -2 92 l-8 50 -2 -73z"/>
<path d="M8606 2695 c-3 -9 -6 -22 -5 -28 0 -7 5 -1 10 12 5 13 8 26 5 28 -2
2 -6 -3 -10 -12z"/>
<path d="M5575 2629 c-4 -6 -5 -12 -2 -15 2 -3 7 2 10 11 7 17 1 20 -8 4z"/>
<path d="M5606 2628 c3 -5 10 -6 15 -3 13 9 11 12 -6 12 -8 0 -12 -4 -9 -9z"/>
<path d="M8577 2601 c-4 -17 -3 -21 5 -13 5 5 8 16 6 23 -3 8 -7 3 -11 -10z"/>
<path d="M5582 2580 c0 -14 2 -19 5 -12 2 6 2 18 0 25 -3 6 -5 1 -5 -13z"/>
<path d="M5121 2576 c2 -2 31 -6 64 -9 38 -4 53 -3 40 3 -19 8 -113 14 -104 6z"/>
<path d="M5283 2520 c0 -25 2 -35 4 -22 2 12 2 32 0 45 -2 12 -4 2 -4 -23z"/>
<path d="M8550 2531 c-12 -24 -13 -34 -1 -27 9 6 22 46 15 46 -2 0 -8 -9 -14
-19z"/>
<path d="M5710 2520 c0 -5 5 -10 10 -10 6 0 10 5 10 10 0 6 -4 10 -10 10 -5 0
-10 -4 -10 -10z"/>
<path d="M7792 2500 c0 -14 2 -19 5 -12 2 6 2 18 0 25 -3 6 -5 1 -5 -13z"/>
<path d="M5726 2477 c3 -10 9 -15 12 -12 3 3 0 11 -7 18 -10 9 -11 8 -5 -6z"/>
<path d="M8516 2455 c-9 -26 -7 -32 5 -12 6 10 9 21 6 23 -2 3 -7 -2 -11 -11z"/>
<path d="M5607 2421 c-7 -29 7 -45 23 -26 7 8 10 18 6 22 -3 3 -6 1 -6 -5 0
-7 -4 -12 -9 -12 -5 0 -7 9 -4 20 3 11 3 20 0 20 -2 0 -7 -9 -10 -19z"/>
<path d="M5283 2360 c0 -25 2 -35 4 -22 2 12 2 32 0 45 -2 12 -4 2 -4 -23z"/>
<path d="M5310 2385 c0 -8 2 -15 4 -15 2 0 6 7 10 15 3 8 1 15 -4 15 -6 0 -10
-7 -10 -15z"/>
<path d="M5800 2395 c0 -5 5 -17 10 -25 5 -8 10 -10 10 -5 0 6 -5 17 -10 25
-5 8 -10 11 -10 5z"/>
<path d="M8470 2386 c-6 -9 -10 -21 -8 -28 3 -8 9 -4 17 10 15 28 9 39 -9 18z"/>
<path d="M5640 2333 c-13 -15 -12 -16 4 -10 10 4 20 7 22 7 2 0 4 5 4 10 0 15
-13 12 -30 -7z"/>
<path d="M5350 2330 c0 -5 5 -10 11 -10 5 0 7 5 4 10 -3 6 -8 10 -11 10 -2 0
-4 -4 -4 -10z"/>
<path d="M8426 2321 c-10 -11 -16 -26 -14 -33 3 -8 11 -2 23 15 21 33 15 45
-9 18z"/>
<path d="M5682 2295 c0 -16 2 -22 5 -12 2 9 2 23 0 30 -3 6 -5 -1 -5 -18z"/>
<path d="M5786 2307 c3 -10 9 -15 12 -12 3 3 0 11 -7 18 -10 9 -11 8 -5 -6z"/>
<path d="M5120 2280 c0 -5 18 -10 40 -10 22 0 40 5 40 10 0 6 -18 10 -40 10
-22 0 -40 -4 -40 -10z"/>
<path d="M5360 2280 c0 -5 18 -10 40 -10 22 0 40 5 40 10 0 6 -18 10 -40 10
-22 0 -40 -4 -40 -10z"/>
<path d="M6600 2242 c-19 -14 -37 -29 -40 -32 -13 -15 -90 -69 -131 -93 -74
-42 -71 -54 19 -60 67 -4 84 -1 130 20 43 20 52 29 53 51 0 15 2 42 3 59 2 18
0 30 -5 27 -5 -3 -4 7 1 22 6 15 9 28 7 30 -1 2 -18 -9 -37 -24z"/>
<path d="M8360 2251 c-13 -25 -13 -31 1 -31 12 0 38 29 39 43 0 15 -30 6 -40
-12z"/>
<path d="M5688 2237 c-3 -19 -2 -25 4 -19 6 6 8 18 6 28 -3 14 -5 12 -10 -9z"/>
<path d="M5220 2200 c0 -33 3 -40 20 -40 17 0 20 7 20 40 0 33 -3 40 -20 40
-17 0 -20 -7 -20 -40z"/>
<path d="M5901 2177 c1 -26 5 -45 8 -42 6 7 2 77 -5 84 -2 3 -4 -16 -3 -42z"/>
<path d="M5120 2200 c0 -5 18 -10 40 -10 22 0 40 5 40 10 0 6 -18 10 -40 10
-22 0 -40 -4 -40 -10z"/>
<path d="M5872 2190 c0 -14 2 -19 5 -12 2 6 2 18 0 25 -3 6 -5 1 -5 -13z"/>
<path d="M5731 2184 c0 -11 3 -14 6 -6 3 7 2 16 -1 19 -3 4 -6 -2 -5 -13z"/>
<path d="M5463 2120 c0 -25 2 -35 4 -22 2 12 2 32 0 45 -2 12 -4 2 -4 -23z"/>
<path d="M8246 2135 c-11 -8 -15 -15 -9 -15 6 0 16 7 23 15 16 19 11 19 -14 0z"/>
<path d="M5735 2130 c3 -5 10 -10 16 -10 5 0 9 5 9 10 0 6 -7 10 -16 10 -8 0
-12 -4 -9 -10z"/>
<path d="M8176 2085 c-11 -8 -15 -15 -10 -15 6 0 19 7 30 15 10 8 15 14 9 14
-5 0 -19 -6 -29 -14z"/>
<path d="M5766 2067 c3 -10 9 -15 12 -12 3 3 0 11 -7 18 -10 9 -11 8 -5 -6z"/>
<path d="M5700 2055 c0 -8 -5 -15 -12 -15 -6 0 -9 -2 -7 -5 7 -6 49 6 49 15 0
4 -7 10 -15 14 -9 3 -15 0 -15 -9z"/>
<path d="M5792 2044 c-6 -12 -17 -15 -32 -11 -37 10 -58 -9 -66 -58 -6 -45
-20 -58 -30 -30 -4 8 0 22 7 31 10 13 10 17 -2 25 -8 5 -20 7 -27 4 -7 -3 -10
0 -7 5 3 6 2 10 -4 10 -5 0 -12 -6 -14 -12 -4 -10 -8 -10 -14 -2 -4 7 -28 14
-53 17 -25 3 -54 7 -65 9 -12 2 -21 -3 -23 -14 -3 -14 3 -18 27 -18 24 0 31
-4 31 -20 0 -17 7 -20 39 -20 22 0 44 6 51 15 18 22 30 18 30 -10 0 -14 -4
-25 -10 -25 -5 0 -10 5 -10 10 0 6 -4 10 -10 10 -5 0 -10 -9 -10 -20 0 -19 24
-26 68 -21 6 1 12 -5 12 -14 0 -8 5 -15 11 -15 6 0 8 8 5 18 -5 16 14 17 322
17 180 -1 397 2 482 5 l155 5 -2 39 c-2 22 -7 44 -11 48 -5 5 -196 9 -425 8
-368 0 -416 1 -411 15 8 20 -3 19 -14 -1z"/>
<path d="M8110 2040 c-8 -5 -12 -11 -10 -14 3 -2 14 2 24 10 22 15 10 19 -14
4z"/>
<path d="M5808 1903 c23 -2 59 -2 80 0 20 2 1 4 -43 4 -44 0 -61 -2 -37 -4z"/>
<path d="M5940 1899 c0 -5 5 -7 10 -4 6 3 10 8 10 11 0 2 -4 4 -10 4 -5 0 -10
-5 -10 -11z"/>
<path d="M5778 1853 c12 -2 32 -2 45 0 12 2 2 4 -23 4 -25 0 -35 -2 -22 -4z"/>
<path d="M6011 1844 c0 -11 3 -14 6 -6 3 7 2 16 -1 19 -3 4 -6 -2 -5 -13z"/>
<path d="M5708 1843 c7 -3 16 -2 19 1 4 3 -2 6 -13 5 -11 0 -14 -3 -6 -6z"/>
<path d="M5513 1800 c0 -25 2 -35 4 -22 2 12 2 32 0 45 -2 12 -4 2 -4 -23z"/>
<path d="M3967 1739 c-10 -35 -54 -203 -97 -373 l-79 -309 81 -88 c45 -49 89
-91 99 -94 21 -7 78 20 85 39 3 7 -25 63 -61 124 -36 61 -65 113 -65 116 0 3
65 6 145 6 80 0 145 3 145 8 0 4 -30 120 -66 257 -36 138 -70 269 -76 293 -6
23 -15 42 -20 42 -4 0 -8 -47 -8 -104 0 -118 -4 -136 -31 -136 -25 0 -29 21
-32 164 l-2 119 -18 -64z"/>
<path d="M4051 1784 c0 -11 3 -14 6 -6 3 7 2 16 -1 19 -3 4 -6 -2 -5 -13z"/>
<path d="M5920 1770 c0 -5 5 -10 11 -10 5 0 7 5 4 10 -3 6 -8 10 -11 10 -2 0
-4 -4 -4 -10z"/>
<path d="M5688 1733 c7 -3 16 -2 19 1 4 3 -2 6 -13 5 -11 0 -14 -3 -6 -6z"/>
<path d="M5950 1718 c0 -19 2 -20 10 -8 13 19 13 30 0 30 -5 0 -10 -10 -10
-22z"/>
<path d="M8536 1727 c3 -10 9 -15 12 -12 3 3 0 11 -7 18 -10 9 -11 8 -5 -6z"/>
<path d="M6075 1658 c-13 -34 -125 -477 -125 -493 0 -2 65 -6 144 -7 l145 -3
-66 -114 -67 -114 30 -23 c52 -42 65 -35 211 126 l32 35 -73 291 c-41 161 -77
297 -80 303 -4 6 -16 11 -27 11 -17 0 -19 -7 -19 -57 0 -66 -9 -86 -36 -81
-16 3 -19 14 -22 71 -3 59 -5 67 -23 67 -11 0 -22 -6 -24 -12z"/>
<path d="M8516 1627 c3 -10 9 -15 12 -12 3 3 0 11 -7 18 -10 9 -11 8 -5 -6z"/>
<path d="M8455 1563 c33 -2 63 -10 68 -16 6 -8 7 -8 4 3 -3 11 -20 15 -68 16
l-64 1 60 -4z"/>
<path d="M8545 1540 c-3 -5 -1 -10 4 -10 6 0 11 5 11 10 0 6 -2 10 -4 10 -3 0
-8 -4 -11 -10z"/>
<path d="M8433 1493 c101 -4 117 -24 26 -34 l-54 -6 62 1 c34 1 60 -1 57 -5
-2 -4 0 -10 5 -14 6 -3 8 3 6 15 -4 22 10 28 18 8 2 -7 4 -1 3 14 -1 19 -4 24
-13 17 -7 -7 -14 -6 -18 1 -4 6 -41 9 -93 8 l-87 -2 88 -3z"/>
<path d="M8370 1429 l-115 -5 133 -2 c102 -2 133 -5 130 -14 -3 -8 -32 -15
-74 -19 l-69 -5 62 -2 c63 -2 93 -9 93 -21 0 -4 -9 -7 -19 -7 -11 0 -17 4 -15
8 3 4 0 8 -7 8 -6 0 -9 -8 -6 -19 4 -16 -1 -21 -27 -24 -27 -3 -26 -4 9 -5 45
-2 54 3 78 38 21 31 24 88 3 71 -8 -7 -23 -8 -37 -4 -13 5 -76 6 -139 2z"/>
<path d="M5785 960 c-7 -12 2 -30 16 -30 5 0 9 9 9 20 0 21 -15 27 -25 10z"/>
<path d="M5890 932 c-5 -20 -10 -45 -10 -54 0 -10 41 -51 95 -94 109 -87 131
-91 154 -27 11 29 11 38 1 41 -6 2 -40 29 -73 59 -73 65 -116 98 -139 106 -13
5 -20 -2 -28 -31z"/>
<path d="M4225 942 c-16 -10 -62 -48 -101 -84 -39 -36 -78 -68 -85 -70 -11 -4
-10 -13 6 -44 11 -21 27 -40 36 -42 22 -4 209 145 209 166 0 26 -20 92 -28 92
-4 0 -20 -8 -37 -18z"/>
<path d="M4360 939 c0 -24 23 -21 28 4 2 10 -3 17 -12 17 -10 0 -16 -9 -16
-21z"/>
<path d="M3595 843 c-16 -2 -46 -8 -65 -14 -24 -7 -43 -7 -62 0 -24 9 -27 7
-37 -21 -14 -40 -14 -44 5 -62 12 -12 36 -16 100 -16 94 0 94 0 109 84 6 27 4
36 -6 35 -8 -1 -27 -4 -44 -6z"/>
<path d="M6524 828 c4 -13 9 -38 13 -55 l6 -33 92 0 c112 0 125 9 106 70 -10
35 -14 39 -31 30 -24 -13 -67 -13 -75 0 -3 6 -31 10 -62 10 -53 0 -55 -1 -49
-22z"/>
<path d="M6380 802 c-53 -47 -47 -62 25 -62 l53 0 -10 43 c-6 23 -14 46 -18
50 -4 4 -26 -10 -50 -31z"/>
<path d="M3726 799 c-13 -65 -10 -69 43 -69 28 0 53 5 57 12 7 11 -66 88 -84
88 -5 0 -12 -14 -16 -31z"/>
</g>
</svg>
