<?xml version="1.0" encoding="UTF-8"?>
<svg xmlns="http://www.w3.org/2000/svg" xmlns:xlink="http://www.w3.org/1999/xlink" width="674px" height="332px" viewBox="0 0 674 332" version="1.1">
  <title>illustration-hero-customer-care</title>
  <defs>
    <polygon id="path-1" points="0 1.16382752 239.404289 1.16382752 239.404289 141.177668 0 141.177668"></polygon>
    <polygon id="path-3" points="0 0 73.5542609 0 73.5542609 114.163513 0 114.163513"></polygon>
    <polygon id="path-5" points="1.28904574 0.855018364 240.693402 0.855018364 240.693402 140.869565 1.28904574 140.869565"></polygon>
    <polygon id="path-7" points="0 0 73.5558261 0 73.5558261 114.16367 0 114.16367"></polygon>
  </defs>
  <g id="Company" stroke="none" stroke-width="1" fill="none" fill-rule="evenodd">
    <g id="Company-–-Contacts" transform="translate(-633.000000, -180.000000)">
      <g id="illustration-hero-customer-care" transform="translate(635.000000, 180.000000)">
        <path d="M305.066284,322.55472 L303.902735,321.900326 L168.248182,242.913405 C151.724735,233.233881 149.672654,218.74547 163.403515,210.171241 L164.154203,209.717626 L307.996714,125.74854 C322.270317,117.433055 347.164336,118.259879 363.779618,127.44528 L364.925154,128.099674 L500.413735,207.198554 C516.937182,216.878078 518.935863,231.366488 505.41298,239.834549 L504.673686,240.282374 L360.831175,324.25146 C346.89742,332.368957 323.094721,331.774311 306.28364,323.196594 L305.066284,322.55472 Z" id="Path-Copy-33" stroke="#378FBF" stroke-width="3" stroke-dasharray="11"></path>
        <path d="M83.9797866,172.851915 L83.3315238,172.487324 L7.75255874,128.480326 C-1.45336196,123.087448 -2.59666421,115.015333 5.05338715,110.238263 L5.4716275,109.985535 L85.612455,63.2027578 C93.564891,58.5698452 107.434416,59.0305041 116.691502,64.1480846 L117.329729,64.5126755 L192.816224,108.582051 C202.022144,113.974929 203.135695,122.047044 195.601517,126.764963 L195.189625,127.014465 L115.048797,173.797242 C107.285705,178.319847 94.0242015,177.988545 84.6580283,173.209531 L83.9797866,172.851915 Z" id="Path-Copy-34" stroke="#378FBF" stroke-width="3" stroke-dasharray="11"></path>
        <path d="M553.408358,172.851915 L552.760095,172.487324 L477.18113,128.480326 C467.975209,123.087448 466.831907,115.015333 474.481959,110.238263 L474.900199,109.985535 L555.041026,63.2027578 C562.993462,58.5698452 576.862987,59.0305041 586.120073,64.1480846 L586.7583,64.5126755 L662.244795,108.582051 C671.450716,113.974929 672.564267,122.047044 665.030089,126.764963 L664.618196,127.014465 L584.477369,173.797242 C576.714277,178.319847 563.452773,177.988545 554.0866,173.209531 L553.408358,172.851915 Z" id="Path-Copy-35" stroke="#378FBF" stroke-width="3" stroke-dasharray="11"></path>
        <g id="Group-335" transform="translate(57.875043, 0.000000)">
          <path d="M88.8196,223.192174 L90.4849913,222.48 C107.021513,214.001217 134.301687,202.284 147.366557,199.219304 C155.23647,197.372348 162.063948,195.775826 167.847426,194.850783 L169.443948,194.847652 C178.583252,192.260348 188.456643,196.757217 192.363426,205.705565 C193.734557,208.848522 194.1916,212.155826 193.87073,215.339478 C196.702209,214.73687 199.388122,214.20313 201.842383,213.810261 L203.438904,213.80713 C212.578209,211.221391 222.453165,215.716696 226.358383,224.665043 C230.622035,234.433565 226.1596,245.808 216.391078,250.071652 C215.404991,250.502087 214.614557,250.854261 213.534557,251.264348 L212.277687,251.827826 C195.431252,259.245391 145.391252,263.995826 133.065165,267.600522 L131.7676,267.882261 C125.3596,269.583652 118.492991,266.401565 115.758557,260.137565 C113.445165,254.834609 102.795426,247.551652 99.0702087,248.639478 L97.7726435,248.922783 C91.3630783,250.624174 84.4980348,247.442087 81.7636,241.176522 C78.7458609,234.262957 81.9060348,226.209913 88.8196,223.192174" id="Fill-1" fill="#3D3A38"></path>
          <path d="M147.392226,167.376991 C148.004226,170.419774 150.967183,172.391948 154.01153,171.779948 C157.054313,171.166383 159.026487,168.203426 158.414487,165.159078 C157.800922,162.116296 154.837965,160.145687 151.795183,160.757687 C148.750835,161.369687 146.780226,164.332643 147.392226,167.376991" id="Fill-3" fill="#F7D9AD"></path>
          <path d="M161.919478,119.799861 C157.532174,128.964209 148.89687,154.730817 147.35513,165.886122 C147.35513,165.886122 147.388,166.959861 147.486609,167.445078 C148.098609,170.487861 151.061565,172.460035 154.105913,171.84647 C155.494261,171.567861 156.658783,170.799339 157.457043,169.756904 C157.457043,169.756904 163.312522,161.345426 163.293739,161.320383 C167.94713,153.365948 187.836348,123.341948 188.68313,114.437426 L188.770783,113.967861 C189.392174,110.209774 187.953739,106.630122 184.586957,104.02247 C180.908696,101.173774 175.629217,101.039165 171.821043,103.712557 C171.796,103.729774 171.770957,103.748557 171.747478,103.765774 C170.564174,104.609426 169.617217,105.737948 168.862783,106.979165 C167.527652,109.167339 164.718087,113.953774 161.919478,119.799861" id="Fill-5" fill="#F7D9AD"></path>
          <path d="M113.487113,196.043165 C117.329722,194.41847 126.093374,190.477252 126.49407,190.319165 C140.391635,184.864383 153.332852,173.5776 155.61807,171.284557 L156.064157,170.879165 C157.203635,170.228035 157.749896,169.464209 158.2132,168.127513 C159.230591,165.194296 157.677896,161.991861 154.744678,160.972904 C152.831983,160.309252 150.970939,160.667687 149.343113,161.932383 L148.903287,162.138991 C145.954417,163.261252 141.554591,164.319339 138.903113,165.634122 C128.956157,170.564557 119.536678,184.372904 109.483287,189.927861 L109.458243,189.945078 C108.89633,190.366122 108.395461,191.015687 108.148157,191.729426 C107.487635,193.631165 108.495635,195.708209 110.397374,196.36873 C111.460157,196.736557 112.576157,196.58473 113.471461,196.047861 L113.487113,196.043165 Z" id="Fill-7" fill="#F7D9AD"></path>
          <path d="M113.538296,195.926243 C115.195861,194.82433 115.646643,192.587635 114.54473,190.93007 C113.441252,189.272504 111.204557,188.821722 109.546991,189.923635 C107.889426,191.025548 107.440209,193.262243 108.542122,194.919809 C109.644035,196.578939 111.88073,197.028157 113.538296,195.926243" id="Fill-9" fill="#F7D9AD"></path>
          <path d="M109.146922,203.7996 C111.2584,202.037165 112.114574,200.122904 113.136661,197.449513 C113.73927,195.873339 114.71753,195.203426 114.813009,194.29247 C114.892835,193.533339 112.687443,189.560817 111.072139,189.476296 C110.093878,189.424643 109.323791,190.15873 107.112139,190.133687 C104.862922,190.110209 102.300661,191.194904 100.1344,193.00273 C99.4942261,193.53647 97.700487,194.674383 98.4815304,194.774557 C98.8650087,194.823078 99.2938783,195.327078 98.8916174,195.818557 C98.6584,196.104991 98.0636174,196.508817 97.8037913,196.752991 C96.2338783,198.2196 97.7599652,201.13247 99.2422261,202.907426 C101.730922,205.889165 106.165183,206.288296 109.146922,203.7996" id="Fill-11" fill="#F7D9AD"></path>
          <path d="M101.125965,195.764087 L101.125965,195.764087 C100.636052,195.17713 99.7548348,195.09887 99.1678783,195.588783 L90.3760522,202.928087 C89.7890957,203.418 89.7108348,204.299217 90.2007478,204.886174 C90.6906609,205.471565 91.5718783,205.551391 92.1588348,205.061478 L100.949096,197.720609 C101.536052,197.232261 101.614313,196.351043 101.125965,195.764087" id="Fill-13" fill="#F7D9AD"></path>
          <path d="M102.067443,199.285043 L102.067443,199.285043 C101.57753,198.698087 100.697878,198.619826 100.110922,199.109739 L91.3175304,206.449043 C90.7321391,206.938957 90.652313,207.820174 91.1422261,208.405565 C91.6321391,208.992522 92.5133565,209.072348 93.100313,208.582435 L101.890574,201.241565 C102.47753,200.751652 102.557357,199.872 102.067443,199.285043" id="Fill-15" fill="#F7D9AD"></path>
          <path d="M105.363791,200.841183 L105.363791,200.841183 C104.873878,200.254226 103.992661,200.1744 103.40727,200.664313 L94.6138783,208.005183 C94.0269217,208.495096 93.9486609,209.374748 94.4385739,209.961704 C94.928487,210.548661 95.8097043,210.626922 96.3966609,210.137009 L105.186922,202.797704 C105.773878,202.307791 105.853704,201.428139 105.363791,200.841183" id="Fill-17" fill="#F7D9AD"></path>
          <path d="M110.02047,201.260035 L110.02047,201.260035 C109.532122,200.673078 108.650904,200.594817 108.063948,201.083165 L99.2721217,208.424035 C98.6851652,208.913948 98.6053391,209.795165 99.0952522,210.380557 C99.5851652,210.967513 100.466383,211.047339 101.053339,210.557426 L109.845165,203.216557 C110.432122,202.726643 110.510383,201.846991 110.02047,201.260035" id="Fill-19" fill="#F7D9AD"></path>
          <path d="M108.103704,191.702817 L108.103704,191.702817 C107.972226,190.949948 107.249096,190.439687 106.496226,190.571165 L95.2125739,192.532383 C94.4597043,192.662296 93.9510087,193.385426 94.082487,194.138296 C94.2124,194.89273 94.9355304,195.401426 95.6884,195.269948 L106.972052,193.30873 C107.724922,193.178817 108.233617,192.455687 108.103704,191.702817" id="Fill-21" fill="#F7D9AD"></path>
          <path d="M113.549878,195.940643 C115.207443,194.83873 115.658226,192.602035 114.556313,190.94447 C113.452835,189.286904 111.216139,188.836122 109.558574,189.938035 C107.902574,191.039948 107.451791,193.276643 108.553704,194.934209 C109.655617,196.593339 111.892313,197.042557 113.549878,195.940643" id="Fill-23" fill="#F7D9AD"></path>
          <path d="M155.676139,215.210191 C156.851617,225.755061 166.352487,233.351061 176.898922,232.175583 C187.443791,231.000104 195.038226,221.499235 193.862748,210.9528 C192.68727,200.40793 183.1864,192.81193 172.64153,193.987409 C162.096661,195.164452 154.500661,204.665322 155.676139,215.210191" id="Fill-25" fill="#F7D9AD"></path>
          <path d="M167.280035,113.845461 C167.943687,119.801113 173.309252,124.089809 179.263339,123.426157 C185.218991,122.762504 189.507687,117.396939 188.844035,111.441287 C188.180383,105.4872 182.814817,101.196939 176.86073,101.860591 C170.905078,102.525809 166.616383,107.889809 167.280035,113.845461" id="Fill-27" fill="#F7D297"></path>
          <path d="M214.314504,131.621635 C214.978157,137.577287 220.343722,141.865983 226.299374,141.20233 C232.253461,140.538678 236.543722,135.173113 235.878504,129.217461 C235.216417,123.263374 229.849287,118.973113 223.8952,119.63833 C217.939548,120.301983 213.650852,125.667548 214.314504,131.621635" id="Fill-29" fill="#F7D9AD"></path>
          <path d="M220.876522,193.029652 C222.756348,195.50113 226.284348,195.978522 228.754261,194.098696 C231.224174,192.21887 231.70313,188.692435 229.823304,186.220957 C227.943478,183.751043 224.415478,183.272087 221.945565,185.151913 C219.474087,187.031739 218.996696,190.559739 220.876522,193.029652" id="Fill-31" fill="#F7D9AD"></path>
          <path d="M167.900643,103.56073 C167.337165,103.473078 166.58273,103.552904 167.202557,103.202296 C165.767252,104.011513 163.381861,105.204209 161.091948,109.67447 C158.8036,114.146296 154.511774,126.09673 153.391078,131.481078 C150.539252,145.187687 149.853687,147.519861 150.260643,148.944209 C150.678557,150.406122 153.83247,152.076209 157.380817,153.652383 C160.45647,155.018817 164.198904,156.574643 165.219426,156.296035 C166.682904,155.89847 166.751774,151.245078 166.983426,150.266817 C170.099774,137.093948 171.765165,123.928904 175.139774,110.932904 C172.726209,108.48647 170.32047,106.0056 167.900643,103.56073" id="Fill-33" fill="#78C184"></path>
          <path d="M166.64033,123.798522 C165.297374,126.797478 164.018591,127.627043 162.85407,130.416261 C161.687983,133.207043 159.382417,139.914 159.142939,142.737652 C158.771983,147.129652 160.125896,150.712435 160.633026,155.052783 C160.679983,155.14513 165.333374,157.075043 167.028504,157.15487 C169.08207,157.251913 165.743461,151.687565 165.824852,149.695043 C168.98033,136.807043 171.844678,123.847043 175.17233,111.035739 C171.879113,114.701478 168.534243,119.569304 166.64033,123.798522" id="Fill-35" fill="#6DAA75"></path>
          <path d="M229.93913,120.212609 C212.47287,110.00113 196.601565,105.559043 178.230609,100.49087 C173.91687,99.3013043 170.794261,101.187391 167.353913,103.087565 C164.652348,104.579217 163.957391,107.110174 161.932,109.119913 C164.226609,113.319391 165.968696,117.063391 165.665043,121.923391 C165.292522,127.875913 163.210783,132.668609 163.664696,138.838696 C164.477043,149.878174 166.713739,156.508435 168.390087,169.150696 C169.382435,176.643391 166.828,192.082696 165.527304,201.200087 C164.575652,207.855391 175.724696,211.450696 181.550435,212.147217 C194.995652,213.754696 210.613391,216.310696 221.806261,206.298 C227.209391,201.463043 218.871478,192.18287 219.051478,185.156609 C219.203304,179.235391 221.897043,169.559217 223.244696,163.20287 C224.468696,157.417826 224.506261,151.958348 225.179304,146.264087 C229.345913,144.994696 233.362261,144.617478 236.452,141.17087 C242.07113,134.899043 234.545565,122.906348 229.93913,120.212609" id="Fill-37" fill="#78C184"></path>
          <path d="M200.078539,216.737217 C176.401496,216.601043 164.541843,208.285043 158.655061,200.848696 C158.702017,200.709391 158.745843,200.560696 158.794365,200.426087 C160.999757,194.116696 164.025322,185.722435 165.480974,182.709391 C167.29193,178.962261 169.45193,172.164522 168.786713,167.143304 C167.110365,154.493217 159.844626,151.145217 161.652452,140.885217 C162.726191,134.78713 165.687583,128.545043 166.060104,122.589391 C166.363757,117.724696 164.5528,112.517217 170.463061,105.454957 C172.986191,102.438783 177.533148,100.804696 181.850017,101.995826 C200.233496,107.06713 212.9008,110.656174 230.379583,120.875478 C234.989148,123.570783 237.988104,128.515304 234.312974,136.94713 C233.6368,138.496696 228.186713,149.270087 226.879757,153.184696 C225.741843,156.595304 224.937322,160.660174 223.293843,166.412348 C222.342191,169.74313 218.169322,181.784348 220.024104,186.786783 C225.253496,200.881565 227.410365,208.621565 228.280626,213.176348 C218.601322,216.186261 213.398539,216.813913 200.078539,216.737217" id="Fill-39" fill="#78C184"></path>
          <path d="M219.590226,186.075548 C218.821704,180.800765 221.906748,169.044417 222.8584,165.716765 C226.284661,153.722504 222.700313,149.582504 215.951096,139.889113 C211.576313,144.356243 206.929183,151.556243 207.6664,164.16407 C208.4944,178.305809 215.123096,198.066678 217.323791,205.050678 C219.436835,209.614852 221.596835,215.105635 222.332487,214.853635 C224.326574,214.169635 228.11127,215.021113 228.280313,213.175722 C228.868835,206.799026 220.502748,192.336417 219.590226,186.075548" id="Fill-41" fill="#6DAA75"></path>
          <path d="M200.078539,216.737217 C213.398539,216.813913 218.601322,216.186261 228.280626,213.176348 C228.739235,215.574261 228.84567,217.103478 228.841121,218.178783 C228.817496,224.594609 228.841121,237.391826 225.4648,241.786957 C219.770539,249.199826 183.34793,229.114957 167.440626,219.931826 C164.144278,218.026957 155.723409,217.183304 155.723409,214.873043 C155.723409,211.792696 157.053843,205.56313 158.655061,200.848696 C164.541843,208.285043 176.401496,216.601043 200.078539,216.737217" id="Fill-43" fill="#3D3A38"></path>
          <g id="Group-47" transform="translate(7.124957, 162.225391)">
            <mask id="mask-2" fill="white">
              <use xlink:href="#path-1"></use>
            </mask>
            <g id="Clip-46"></g>
            <path d="M148.590157,140.682835 L1.92302609,57.4210957 C-0.629843478,55.9701391 -0.643930435,52.2965739 1.89798261,50.8299652 L87.041113,1.67274783 C88.2072,0.999704348 89.6440696,0.993443478 90.8148522,1.65866087 L237.481983,84.9219652 C240.034852,86.3697913 240.047374,90.0433565 237.505461,91.5115304 L152.363896,140.668748 C151.197809,141.341791 149.760939,141.348052 148.590157,140.682835" id="Fill-45" fill="#F4F6F9" mask="url(#mask-2)"></path>
          </g>
          <path d="M213.162035,143.886522 C213.219948,154.046348 216.707252,180.997826 220.192991,191.705478 C220.192991,191.705478 220.692296,192.65713 220.991252,193.05 C222.871078,195.519913 226.397513,195.99887 228.868991,194.119043 C229.995948,193.261304 230.708122,192.060783 230.971078,190.774174 C230.971078,190.774174 232.562904,180.650348 232.53473,180.636261 C233.246904,171.448435 238.022383,135.752087 234.896643,127.371913 L234.769861,126.911739 C233.68673,123.258522 230.830209,120.668087 226.662035,119.79313 C222.108817,118.836783 217.30047,121.021826 215.043426,125.089826 C215.027774,125.116435 215.013687,125.143043 214.998035,125.169652 C214.303078,126.445304 213.944643,127.874348 213.806904,129.320609 C213.564296,131.871913 213.126035,137.404957 213.162035,143.886522" id="Fill-48" fill="#F7D9AD"></path>
          <polygon id="Fill-50" fill="#E4E6EA" points="196.88393 227.575252 196.88393 230.530383 191.493322 229.401861"></polygon>
          <path d="M143.825409,261.192209 L64.1558435,215.26247 C63.1963652,214.709948 63.1963652,213.32473 64.1558435,212.772209 L115.2508,183.317948 C115.693757,183.061252 116.241583,183.061252 116.686104,183.317948 L196.078626,229.088035 C197.160191,229.710991 197.160191,231.271513 196.078626,231.896035 L145.260713,261.192209 C144.816191,261.448904 144.26993,261.448904 143.825409,261.192209" id="Fill-52" fill="#E4E6EA"></path>
          <polygon id="Fill-54" fill="#E4E6EA" points="63.4369391 210.92713 63.4369391 214.12487 69.5209391 213.173217"></polygon>
          <path d="M143.611443,258.2208 L64.2017043,212.439757 C63.0356174,211.768278 63.0356174,210.08567 64.2017043,209.412626 L115.036835,180.107061 C115.353009,179.925496 115.742748,179.925496 116.058922,180.107061 L196.279443,226.354539 C197.08553,226.819409 197.08553,227.982365 196.279443,228.447235 L144.635096,258.2208 C144.318922,258.402365 143.929183,258.402365 143.611443,258.2208" id="Fill-56" fill="#C2C7CC"></path>
          <path d="M125.75967,205.824209 L133.020713,201.637252 C133.504365,201.358643 134.100713,201.361774 134.57967,201.646643 C138.531843,203.991339 156.574104,214.439165 159.947148,216.392557 C160.194452,216.536557 160.183496,216.8856 159.936191,217.028035 L152.565583,221.2776 C151.7548,221.744035 150.5308,221.795687 149.829583,221.391861 L125.564017,207.401948 C124.861235,206.998122 124.948887,206.290643 125.75967,205.824209" id="Fill-58" fill="#E4E6EA"></path>
          <path d="M161.853739,215.919391 L163.157565,215.166522 C163.531652,214.950522 163.484696,214.571739 163.054261,214.32287 L151.535826,207.673826 C151.105391,207.426522 150.449565,207.398348 150.077043,207.612783 L148.773217,208.367217 C148.39913,208.583217 148.447652,208.962 148.876522,209.209304 L160.394957,215.858348 C160.823826,216.107217 161.481217,216.135391 161.853739,215.919391" id="Fill-60" fill="#E4E6EA"></path>
          <path d="M148.287217,208.004557 L149.592609,207.251687 C149.96513,207.035687 149.918174,206.656904 149.487739,206.408035 L137.97087,199.758991 C137.540435,199.510122 136.883043,199.483513 136.512087,199.697948 L135.206696,200.452383 C134.834174,200.666817 134.88113,201.0456 135.31,201.29447 L146.828435,207.943513 C147.25887,208.192383 147.914696,208.218991 148.287217,208.004557" id="Fill-62" fill="#E4E6EA"></path>
          <path d="M155.521026,234.876991 L162.213896,238.741513 C162.661548,238.999774 163.342417,239.026383 163.729026,238.804122 L165.582243,237.733513 C165.968852,237.511252 165.92033,237.116817 165.474243,236.860122 L158.781374,232.994035 C158.333722,232.737339 157.652852,232.709165 157.264678,232.931426 L155.411461,234.002035 C155.024852,234.225861 155.073374,234.61873 155.521026,234.876991" id="Fill-64" fill="#E4E6EA"></path>
          <path d="M145.941739,229.346765 L152.634609,233.211287 C153.082261,233.467983 153.76313,233.496157 154.149739,233.273896 L156.002957,232.203287 C156.389565,231.981026 156.341043,231.586591 155.894957,231.32833 L149.202087,227.463809 C148.754435,227.207113 148.073565,227.178939 147.686957,227.4012 L145.832174,228.471809 C145.445565,228.69407 145.494087,229.088504 145.941739,229.346765" id="Fill-66" fill="#E4E6EA"></path>
          <path d="M136.362452,223.815757 L143.055322,227.680278 C143.502974,227.938539 144.183843,227.966713 144.570452,227.742887 L146.42367,226.672278 C146.810278,226.450017 146.761757,226.055583 146.31567,225.798887 L139.6228,221.9328 C139.175148,221.676104 138.494278,221.64793 138.10767,221.870191 L136.252887,222.9408 C135.866278,223.164626 135.9148,223.557496 136.362452,223.815757" id="Fill-68" fill="#E4E6EA"></path>
          <path d="M126.783009,218.28553 L133.475878,222.150052 C133.92353,222.406748 134.6044,222.434922 134.991009,222.212661 L136.844226,221.142052 C137.230835,220.919791 137.182313,220.525357 136.736226,220.267096 L130.043357,216.402574 C129.595704,216.145878 128.914835,216.117704 128.528226,216.339965 L126.675009,217.410574 C126.286835,217.632835 126.336922,218.02727 126.783009,218.28553" id="Fill-70" fill="#E4E6EA"></path>
          <path d="M117.203722,212.754522 L123.896591,216.619043 C124.344243,216.877304 125.025113,216.905478 125.411722,216.681652 L127.264939,215.611043 C127.651548,215.388783 127.603026,214.994348 127.156939,214.737652 L120.46407,210.871565 C120.016417,210.61487 119.335548,210.586696 118.948939,210.808957 L117.095722,211.879565 C116.707548,212.103391 116.757635,212.496261 117.203722,212.754522" id="Fill-72" fill="#E4E6EA"></path>
          <path d="M107.624435,207.224296 L114.317304,211.088817 C114.764957,211.345513 115.445826,211.373687 115.832435,211.151426 L117.685652,210.080817 C118.072261,209.858557 118.023739,209.464122 117.577652,209.205861 L110.884783,205.341339 C110.43713,205.084643 109.756261,205.05647 109.369652,205.27873 L107.516435,206.349339 C107.129826,206.5716 107.178348,206.966035 107.624435,207.224296" id="Fill-74" fill="#E4E6EA"></path>
          <path d="M98.0451478,201.693287 L104.738017,205.557809 C105.18567,205.81607 105.866539,205.844243 106.253148,205.620417 L108.106365,204.549809 C108.492974,204.327548 108.444452,203.933113 107.998365,203.676417 L101.305496,199.81033 C100.857843,199.553635 100.176974,199.525461 99.7903652,199.747722 L97.9371478,200.81833 C97.5505391,201.042157 97.5990609,201.435026 98.0451478,201.693287" id="Fill-76" fill="#E4E6EA"></path>
          <path d="M151.2472,237.34487 L157.94007,241.209391 C158.387722,241.466087 159.068591,241.494261 159.4552,241.272 L161.308417,240.201391 C161.695026,239.97913 161.646504,239.584696 161.200417,239.326435 L154.507548,235.461913 C154.059896,235.205217 153.379026,235.177043 152.992417,235.399304 L151.137635,236.469913 C150.751026,236.692174 150.799548,237.086609 151.2472,237.34487" id="Fill-78" fill="#E4E6EA"></path>
          <path d="M141.667913,231.813861 L148.360783,235.678383 C148.808435,235.936643 149.489304,235.964817 149.875913,235.740991 L151.72913,234.670383 C152.115739,234.448122 152.067217,234.053687 151.62113,233.796991 L144.928261,229.930904 C144.480609,229.674209 143.799739,229.646035 143.41313,229.868296 L141.559913,230.938904 C141.171739,231.16273 141.220261,231.5556 141.667913,231.813861" id="Fill-80" fill="#E4E6EA"></path>
          <path d="M132.088626,226.283635 L138.781496,230.148157 C139.229148,230.404852 139.910017,230.433026 140.296626,230.210765 L142.149843,229.140157 C142.536452,228.917896 142.48793,228.523461 142.041843,228.2652 L135.348974,224.400678 C134.901322,224.143983 134.220452,224.115809 133.833843,224.33807 L131.980626,225.408678 C131.592452,225.630939 131.642539,226.025374 132.088626,226.283635" id="Fill-82" fill="#E4E6EA"></path>
          <path d="M122.509339,220.752626 L129.202209,224.617148 C129.649861,224.875409 130.33073,224.903583 130.717339,224.679757 L132.570557,223.609148 C132.957165,223.386887 132.908643,222.992452 132.462557,222.735757 L125.769687,218.86967 C125.322035,218.612974 124.641165,218.5848 124.254557,218.807061 L122.401339,219.87767 C122.01473,220.101496 122.063252,220.494365 122.509339,220.752626" id="Fill-84" fill="#E4E6EA"></path>
          <path d="M112.930052,215.2224 L119.622922,219.086922 C120.070574,219.343617 120.751443,219.371791 121.138052,219.14953 L122.99127,218.078922 C123.377878,217.856661 123.329357,217.462226 122.88327,217.203965 L116.1904,213.339443 C115.742748,213.082748 115.061878,213.054574 114.67527,213.276835 L112.822052,214.347443 C112.435443,214.569704 112.483965,214.964139 112.930052,215.2224" id="Fill-86" fill="#E4E6EA"></path>
          <path d="M103.350609,209.691391 L110.043478,213.555913 C110.49113,213.814174 111.172,213.842348 111.558609,213.618522 L113.411826,212.547913 C113.798435,212.325652 113.749913,211.931217 113.303826,211.674522 L106.610957,207.808435 C106.163304,207.551739 105.482435,207.523565 105.095826,207.745826 L103.242609,208.816435 C102.856,209.040261 102.904522,209.43313 103.350609,209.691391" id="Fill-88" fill="#E4E6EA"></path>
          <path d="M93.7713217,204.161165 L100.464191,208.025687 C100.911843,208.282383 101.592713,208.310557 101.979322,208.088296 L103.832539,207.017687 C104.219148,206.795426 104.170626,206.400991 103.724539,206.14273 L97.0316696,202.278209 C96.5840174,202.021513 95.9031478,201.993339 95.5165391,202.2156 L93.6633217,203.286209 C93.276713,203.50847 93.3252348,203.902904 93.7713217,204.161165" id="Fill-90" fill="#E4E6EA"></path>
          <path d="M146.97353,239.811809 L153.6664,243.67633 C154.114052,243.934591 154.794922,243.962765 155.18153,243.738939 L157.034748,242.66833 C157.421357,242.44607 157.372835,242.051635 156.926748,241.794939 L150.233878,237.928852 C149.786226,237.672157 149.105357,237.643983 148.718748,237.866243 L146.86553,238.936852 C146.477357,239.160678 146.527443,239.553548 146.97353,239.811809" id="Fill-92" fill="#E4E6EA"></path>
          <path d="M137.394087,234.281583 L144.086957,238.146104 C144.534609,238.4028 145.215478,238.430974 145.602087,238.208713 L147.455304,237.138104 C147.841913,236.915843 147.793391,236.521409 147.347304,236.263148 L140.654435,232.398626 C140.206783,232.14193 139.525913,232.113757 139.139304,232.336017 L137.286087,233.406626 C136.899478,233.628887 136.948,234.023322 137.394087,234.281583" id="Fill-94" fill="#E4E6EA"></path>
          <path d="M127.8148,228.750574 L134.50767,232.615096 C134.955322,232.873357 135.636191,232.90153 136.0228,232.677704 L137.876017,231.607096 C138.262626,231.384835 138.214104,230.9904 137.768017,230.733704 L131.075148,226.867617 C130.627496,226.610922 129.946626,226.582748 129.560017,226.805009 L127.7068,227.875617 C127.320191,228.099443 127.368713,228.492313 127.8148,228.750574" id="Fill-96" fill="#E4E6EA"></path>
          <path d="M118.235513,223.220348 L124.928383,227.08487 C125.376035,227.341565 126.056904,227.369739 126.443513,227.147478 L128.29673,226.07687 C128.683339,225.854609 128.634817,225.460174 128.18873,225.201913 L121.495861,221.337391 C121.048209,221.080696 120.367339,221.052522 119.98073,221.274783 L118.127513,222.345391 C117.740904,222.567652 117.789426,222.962087 118.235513,223.220348" id="Fill-98" fill="#E4E6EA"></path>
          <path d="M108.656226,217.689339 L115.349096,221.553861 C115.796748,221.812122 116.477617,221.840296 116.864226,221.61647 L118.717443,220.545861 C119.104052,220.3236 119.05553,219.929165 118.609443,219.67247 L111.916574,215.806383 C111.468922,215.549687 110.788052,215.521513 110.401443,215.743774 L108.548226,216.814383 C108.161617,217.038209 108.210139,217.431078 108.656226,217.689339" id="Fill-100" fill="#E4E6EA"></path>
          <path d="M99.0769391,212.159113 L105.769809,216.023635 C106.217461,216.28033 106.89833,216.308504 107.284939,216.086243 L109.138157,215.015635 C109.524765,214.793374 109.476243,214.398939 109.030157,214.140678 L102.337287,210.276157 C101.889635,210.019461 101.208765,209.991287 100.822157,210.213548 L98.9689391,211.284157 C98.5823304,211.506417 98.6308522,211.900852 99.0769391,212.159113" id="Fill-102" fill="#E4E6EA"></path>
          <path d="M89.4976522,206.628261 L96.1905217,210.492783 C96.6381739,210.751043 97.3190435,210.779217 97.7056522,210.555391 L99.5588696,209.484783 C99.9454783,209.262522 99.8969565,208.868087 99.4508696,208.611391 L92.758,204.745304 C92.3103478,204.488609 91.6294783,204.460435 91.2428696,204.682696 L89.3896522,205.753304 C89.0030435,205.97713 89.0515652,206.37 89.4976522,206.628261" id="Fill-104" fill="#E4E6EA"></path>
          <path d="M142.699704,242.279687 L149.392574,246.144209 C149.840226,246.400904 150.521096,246.429078 150.907704,246.206817 L152.760922,245.136209 C153.14753,244.913948 153.099009,244.519513 152.652922,244.261252 L145.960052,240.39673 C145.5124,240.140035 144.83153,240.111861 144.444922,240.334122 L142.591704,241.40473 C142.205096,241.626991 142.253617,242.021426 142.699704,242.279687" id="Fill-106" fill="#E4E6EA"></path>
          <path d="M133.120417,236.748678 L139.813287,240.6132 C140.260939,240.871461 140.941809,240.899635 141.328417,240.675809 L143.181635,239.6052 C143.568243,239.382939 143.519722,238.988504 143.073635,238.731809 L136.380765,234.865722 C135.933113,234.609026 135.252243,234.580852 134.865635,234.803113 L133.012417,235.873722 C132.625809,236.097548 132.67433,236.490417 133.120417,236.748678" id="Fill-108" fill="#E4E6EA"></path>
          <path d="M123.54113,231.218452 L130.234,235.082974 C130.681652,235.33967 131.362522,235.367843 131.74913,235.145583 L133.602348,234.074974 C133.988957,233.852713 133.940435,233.458278 133.494348,233.200017 L126.801478,229.335496 C126.353826,229.0788 125.672957,229.050626 125.286348,229.272887 L123.43313,230.343496 C123.046522,230.565757 123.095043,230.960191 123.54113,231.218452" id="Fill-110" fill="#E4E6EA"></path>
          <path d="M113.961687,225.687443 L120.654557,229.551965 C121.102209,229.810226 121.783078,229.8384 122.169687,229.614574 L124.022904,228.543965 C124.409513,228.321704 124.360991,227.92727 123.914904,227.670574 L117.222035,223.804487 C116.774383,223.547791 116.093513,223.519617 115.706904,223.741878 L113.853687,224.812487 C113.467078,225.036313 113.5156,225.429183 113.961687,225.687443" id="Fill-112" fill="#E4E6EA"></path>
          <path d="M104.3824,220.157217 L111.07527,224.021739 C111.522922,224.278435 112.203791,224.306609 112.5904,224.084348 L114.443617,223.013739 C114.830226,222.791478 114.781704,222.397043 114.335617,222.138783 L107.642748,218.274261 C107.195096,218.017565 106.514226,217.989391 106.127617,218.211652 L104.2744,219.282261 C103.887791,219.504522 103.936313,219.898957 104.3824,220.157217" id="Fill-114" fill="#E4E6EA"></path>
          <path d="M94.803113,214.626209 L101.495983,218.49073 C101.943635,218.748991 102.624504,218.777165 103.011113,218.553339 L104.86433,217.48273 C105.250939,217.26047 105.202417,216.866035 104.75633,216.609339 L98.0634609,212.743252 C97.6158087,212.486557 96.9349391,212.458383 96.5483304,212.680643 L94.695113,213.751252 C94.3085043,213.975078 94.3570261,214.367948 94.803113,214.626209" id="Fill-116" fill="#E4E6EA"></path>
          <path d="M85.2238261,209.095983 L91.9166957,212.960504 C92.3643478,213.2172 93.0452174,213.245374 93.4318261,213.023113 L95.2850435,211.952504 C95.6716522,211.730243 95.6231304,211.335809 95.1770435,211.077548 L88.4841739,207.213026 C88.0365217,206.95633 87.3556522,206.928157 86.9690435,207.150417 L85.1158261,208.221026 C84.7292174,208.443287 84.7777391,208.837722 85.2238261,209.095983" id="Fill-118" fill="#E4E6EA"></path>
          <path d="M138.425878,244.746783 L145.118748,248.611304 C145.5664,248.869565 146.24727,248.897739 146.633878,248.673913 L148.487096,247.603304 C148.873704,247.381043 148.825183,246.986609 148.379096,246.729913 L141.686226,242.863826 C141.238574,242.60713 140.557704,242.578957 140.171096,242.801217 L138.317878,243.871826 C137.93127,244.095652 137.979791,244.488522 138.425878,244.746783" id="Fill-120" fill="#E4E6EA"></path>
          <path d="M128.846591,239.216557 L135.539461,243.081078 C135.987113,243.337774 136.667983,243.365948 137.054591,243.143687 L138.907809,242.073078 C139.294417,241.850817 139.245896,241.456383 138.799809,241.198122 L132.106939,237.3336 C131.659287,237.076904 130.978417,237.04873 130.591809,237.270991 L128.738591,238.3416 C128.351983,238.563861 128.400504,238.958296 128.846591,239.216557" id="Fill-122" fill="#E4E6EA"></path>
          <path d="M119.267304,233.685548 L125.960174,237.55007 C126.407826,237.80833 127.088696,237.836504 127.475304,237.612678 L129.328522,236.54207 C129.71513,236.319809 129.666609,235.925374 129.220522,235.668678 L122.527652,231.802591 C122.08,231.545896 121.39913,231.517722 121.012522,231.739983 L119.159304,232.810591 C118.772696,233.034417 118.821217,233.427287 119.267304,233.685548" id="Fill-124" fill="#E4E6EA"></path>
          <path d="M109.688017,228.155322 L116.380887,232.019843 C116.828539,232.276539 117.509409,232.304713 117.896017,232.082452 L119.749235,231.011843 C120.135843,230.789583 120.087322,230.395148 119.641235,230.136887 L112.948365,226.272365 C112.500713,226.01567 111.819843,225.987496 111.433235,226.209757 L109.580017,227.280365 C109.193409,227.502626 109.24193,227.897061 109.688017,228.155322" id="Fill-126" fill="#E4E6EA"></path>
          <path d="M100.10873,222.624313 L106.8016,226.488835 C107.249252,226.747096 107.930122,226.77527 108.31673,226.551443 L110.169948,225.480835 C110.556557,225.258574 110.508035,224.864139 110.061948,224.607443 L103.369078,220.741357 C102.921426,220.484661 102.240557,220.456487 101.853948,220.678748 L100.00073,221.749357 C99.6141217,221.973183 99.6626435,222.366052 100.10873,222.624313" id="Fill-128" fill="#E4E6EA"></path>
          <path d="M90.529287,217.094087 L97.2221565,220.958609 C97.6698087,221.215304 98.3506783,221.243478 98.737287,221.021217 L100.590504,219.950609 C100.977113,219.728348 100.928591,219.333913 100.482504,219.075652 L93.7896348,215.21113 C93.3419826,214.954435 92.661113,214.926261 92.2745043,215.148522 L90.421287,216.21913 C90.0346783,216.441391 90.0832,216.835826 90.529287,217.094087" id="Fill-130" fill="#E4E6EA"></path>
          <path d="M80.95,211.563078 L87.6428696,215.4276 C88.0905217,215.685861 88.7713913,215.714035 89.158,215.490209 L91.0112174,214.4196 C91.3978261,214.197339 91.3493043,213.802904 90.9032174,213.546209 L84.2103478,209.680122 C83.7626957,209.423426 83.0818261,209.395252 82.6952174,209.617513 L80.842,210.688122 C80.4553913,210.911948 80.503913,211.304817 80.95,211.563078" id="Fill-132" fill="#E4E6EA"></path>
          <path d="M209.86647,87.9498783 C208.152557,96.8371826 207.805078,101.559443 209.72873,111.088487 C209.878991,111.831965 203.798122,115.006226 198.180557,115.21127 C191.603513,115.450748 185.491339,112.465878 188.167861,109.521704 C193.073252,104.127965 190.687861,93.8945739 189.939687,91.9067478 C187.15047,84.5048348 190.689426,83.3152696 197.134991,82.6328348 C203.578991,81.9504 204.626122,87.7510957 209.86647,87.9498783" id="Fill-134" fill="#EFCA95"></path>
          <path d="M213.550209,49.7083304 C217.150209,55.5794609 220.50447,65.1429391 219.588817,72.5041565 C218.6716,79.8653739 218.411774,83.1413739 213.683252,87.9356348 C208.366209,93.3293739 199.826383,99.7358087 191.967426,97.8246783 C185.855252,96.3377217 182.942383,90.7045043 180.7276,84.7238087 C178.514383,78.7399826 177.52047,70.851287 178.705339,64.3838087 C180.088991,56.8441565 181.760643,47.783113 187.904122,43.1892 C199.314557,34.6556348 206.351774,37.9645043 213.550209,49.7083304" id="Fill-136" fill="#F7D9AD"></path>
          <path d="M239.043061,55.889687 C234.658887,57.8524696 229.053843,54.8613391 226.521322,49.2077739 C223.9888,43.5557739 225.489843,37.3809913 229.874017,35.4182087 C234.256626,33.4554261 239.863235,36.4465565 242.395757,42.0985565 C244.926713,47.7521217 243.42567,53.9269043 239.043061,55.889687" id="Fill-138" fill="#DD9145"></path>
          <path d="M227.273409,60.408 C227.273409,60.408 233.144539,57.1147826 234.47967,55.8015652 C235.8148,54.4883478 228.403496,40.0993043 225.836539,40.2213913 C223.268017,40.3434783 220.089061,43.0685217 220.089061,43.0685217 L227.273409,60.408 Z" id="Fill-140" fill="#C6C6C6"></path>
          <path d="M188.910243,50.1821217 C188.910243,50.1821217 197.512678,64.3661217 204.862939,67.3697739 C212.2132,70.3749913 211.16607,73.8403826 211.16607,73.8403826 C211.16607,73.8403826 211.774939,69.307513 214.960157,69.2699478 C218.143809,69.2323826 218.358243,75.427513 218.358243,75.427513 C218.358243,75.427513 217.995113,80.7289043 213.603113,81.3800348 C209.212678,82.0296 213.673548,88.5456 213.673548,88.5456 C213.673548,88.5456 225.367287,77.5546435 226.617896,75.4760348 C231.814417,66.8329043 230.166243,56.9344696 227.658765,50.1649043 C224.497026,41.6266435 223.972678,41.8551652 217.595983,37.2487304 C215.255983,35.5582957 212.737548,34.6974261 210.278591,34.3609043 C202.900157,33.3482087 196.0492,37.0280348 196.0492,37.0280348 C196.0492,37.0280348 190.678939,35.3219478 184.086243,43.2169043 C177.44033,51.1760348 179.511113,58.3744696 179.511113,58.3744696 C179.511113,58.3744696 182.004504,50.9866435 188.910243,50.1821217" id="Fill-142" fill="#DD9145"></path>
          <path d="M217.366991,68.5901739 C217.335687,68.274 217.301252,67.9562609 217.262122,67.6385217 C217.291861,67.9546957 217.315339,68.2677391 217.340383,68.5823478 C217.348209,68.583913 217.3576,68.5886087 217.366991,68.5901739" id="Fill-144" fill="#DD9145"></path>
          <path d="M209.715113,71.8483304 C209.674417,71.9860696 209.65407,72.0690261 209.65407,72.0690261 C209.65407,72.0690261 209.685374,71.9907652 209.715113,71.8483304" id="Fill-146" fill="#DD9145"></path>
          <path d="M180.083043,82.055113 C179.721478,81.8485043 179.347391,81.7326783 178.995217,81.7013739 C178.561652,81.6638087 178.159391,81.7545913 177.840087,81.9612 C177.209304,81.3883304 176.77887,80.6761565 176.583217,79.8403304 C176.185652,78.1405043 176.803913,76.0994609 178.239217,74.2759826 C178.245478,74.2681565 178.375391,74.1930261 178.381652,74.1852 C178.378522,73.7297217 178.258,73.2961565 178.262696,72.903287 C178.256435,72.903287 178.276783,72.831287 178.270522,72.832827 C178.181304,72.8547652 178.068609,72.9658957 178.001304,73.0410261 C176.015043,75.2417217 175.136957,77.8728522 175.650348,80.075113 C175.896087,81.1253739 176.445478,82.0332 177.248435,82.7500696 C176.943217,83.7142435 177.547391,84.9601565 178.652435,85.5925043 C179.158,85.8820696 179.683913,85.9932 180.147217,85.9446783 C180.737304,85.8820696 181.227217,85.5612 181.447913,85.0133739 C181.843913,84.0366783 181.231913,82.7125043 180.083043,82.055113" id="Fill-148" fill="#494949"></path>
          <path d="M217.622278,68.6681217 C217.537757,68.633687 217.453235,68.6117739 217.367148,68.5898609 C217.357757,68.5882957 217.348365,68.5836 217.340539,68.5820348 C217.315496,68.2689913 217.292017,67.9543826 217.262278,67.6382087 C216.87567,63.485687 216.0508,59.129687 214.78767,54.6030783 C210.904365,40.6898609 205.235148,36.2493391 200.8588,35.1004696 C200.548887,35.017513 200.24367,34.9517739 199.947843,34.901687 C193.76367,33.8467304 188.4748,38.2825565 187.012887,40.4691652 L186.917409,40.6131652 C186.477583,41.2689913 185.981409,42.0093391 185.472713,42.8467304 C184.156365,45.0145565 182.758626,47.8272522 182.048017,51.4898609 C181.785061,52.8516 181.662974,53.4213391 181.628539,55.025687 C181.99167,54.0849913 182.361061,54.205513 182.777409,53.3070783 C182.796191,53.1724696 182.78993,52.9079478 182.810278,52.7749043 C183.624191,47.2794261 186.06593,43.6262087 187.703148,41.1829043 L187.800191,41.0404696 C189.309061,38.7865565 194.374104,34.9611652 199.792887,35.8862087 C202.58993,36.3651652 205.138104,38.0383826 207.382626,40.8322957 C209.974626,44.0582087 212.1628,48.7757739 213.867322,54.881687 C215.204017,59.6712522 216.039843,64.2620348 216.381061,68.6149043 C215.989757,68.7244696 215.595322,68.9436 215.210278,69.2613391 C214.130278,70.1629043 213.136365,71.8298609 212.563496,73.9303826 C212.032887,75.8759478 211.971843,77.7933391 212.297409,79.2787304 C212.582278,80.5700348 213.158278,81.5342087 213.986278,81.8926435 C213.994104,81.8957739 214.00193,81.9004696 214.008191,81.9036 C214.363496,82.0522957 214.739148,82.0742087 215.11793,81.9928174 C216.135322,81.7752522 217.187148,80.7797739 218.013583,79.2787304 C218.434626,78.5164696 218.797757,77.6289913 219.066974,76.6413391 C220.065583,72.9865565 219.417583,69.4162957 217.622278,68.6681217" id="Fill-150" fill="#494949"></path>
          <path d="M196.093652,37.0490087 C196.093652,37.0490087 173.902,32.8589217 174.443565,55.4966609 C174.623565,62.9846609 178.567913,65.5735304 178.567913,65.5735304 C178.567913,65.5735304 180.464957,50.2782261 188.91087,50.1827478 C197.356783,50.0872696 196.093652,37.0490087 196.093652,37.0490087" id="Fill-152" fill="#DD9145"></path>
          <path d="M146.706035,259.57127 L66.6623826,213.427096 C66.2037739,213.161009 65.9204696,212.672661 65.9204696,212.142052 L65.9204696,146.160313 C65.9204696,145.020835 67.1554261,144.307096 68.1430783,144.876835 L148.020817,190.927096 C148.479426,191.191617 148.76273,191.68153 148.76273,192.210574 L148.76273,258.38327 C148.76273,259.439791 147.620122,260.098748 146.706035,259.57127" id="Fill-154" fill="#E4E6EA"></path>
          <path d="M65.92,146.160939 C65.92,145.019896 67.1549565,144.307722 68.1426087,144.877461 L148.020348,190.927722 C148.480522,191.192243 148.762261,191.682157 148.762261,192.2112 L148.762261,250.340243 L65.92,165.547722 L65.92,146.160939 Z" id="Fill-156" fill="#E4E6EA"></path>
          <path d="M145.290609,261.186104 L148.043826,259.588017 C148.043826,259.588017 144.074435,256.54367 144.146435,256.653235 C144.218435,256.75967 145.290609,261.186104 145.290609,261.186104" id="Fill-158" fill="#E4E6EA"></path>
          <path d="M63.7564,146.492609 L66.5769217,144.936783 C66.5769217,144.936783 68.3690957,150.862696 68.1530957,150.718696 C67.9355304,150.574696 63.7564,146.492609 63.7564,146.492609" id="Fill-160" fill="#E4E6EA"></path>
          <path d="M143.844504,261.215843 L63.6834609,215.0028 C63.3203304,214.793061 63.0965043,214.406452 63.0965043,213.986974 L63.0965043,147.676539 C63.0965043,146.6028 64.2578957,145.932887 65.1892,146.468191 L145.240678,192.618626 C145.672678,192.867496 145.938765,193.32767 145.938765,193.826974 L145.938765,260.00593 C145.938765,261.081235 144.775809,261.752713 143.844504,261.215843" id="Fill-162" fill="#DEDFE2"></path>
          <path d="M63.0968174,147.658226 C63.0968174,146.592313 64.2488174,145.927096 65.1722957,146.45927 L145.197165,192.592487 C145.655774,192.858574 145.939078,193.346922 145.939078,193.87753 L145.939078,252.006574 L63.0968174,167.214052 L63.0968174,147.658226 Z" id="Fill-164" fill="#E2E4E8"></path>
          <path d="M234.8572,125.774139 C233.176157,122.527878 237.795113,129.630835 238.234939,133.896052 C238.674765,138.162835 238.432157,144.204574 237.660504,149.186661 C237.043809,153.151357 237.568157,166.343009 235.586591,168.91153 C235.192157,169.424922 232.467113,170.742835 231.385548,170.77727 C228.978243,170.853965 224.974417,171.181096 222.358939,170.833617 C219.741896,170.486139 216.107461,170.282661 214.371635,168.556226 C212.892504,167.083357 211.88607,159.229096 212.438591,153.786835 C212.992678,148.346139 211.85633,127.596052 212.566939,121.693617 C218.686939,117.600574 230.055113,116.504922 234.8572,125.774139" id="Fill-166" fill="#78C184"></path>
          <path d="M227.245078,184.351304 C225.338643,183.667304 223.47447,184.006957 221.832557,185.254435 L221.391165,185.456348 C218.431339,186.547304 214.020557,187.56 211.356557,188.848174 C201.483165,193.615826 192.033948,207.036 182.061948,212.61913 C181.420209,212.808522 180.618817,213.048 179.314991,213.019826 C177.978296,212.991652 176.528904,213.362609 175.112383,214.035652 L167.391165,215.295652 C166.63673,215.419304 166.120209,216.136174 166.243861,216.890609 C166.365948,217.645043 167.084383,218.161565 167.838817,218.037913 L170.654643,217.579304 C171.033426,217.645043 171.437252,218.139652 171.036557,218.620174 L162.449774,225.641739 C161.856557,226.125391 161.768904,227.005043 162.252557,227.596696 C162.736209,228.188348 163.615861,228.276 164.207513,227.792348 L169.773426,223.242261 C169.846991,223.406609 169.928383,223.566261 170.012904,223.727478 L163.35447,229.171304 C162.762817,229.654957 162.675165,230.536174 163.158817,231.127826 C163.64247,231.719478 164.522122,231.80713 165.113774,231.323478 L171.612557,226.01113 C171.733078,226.141043 171.858296,226.264696 171.986643,226.385217 L166.6336,230.761565 C166.041948,231.245217 165.954296,232.12487 166.437948,232.716522 C166.9216,233.308174 167.801252,233.395826 168.392904,232.912174 L174.516035,227.908174 C174.721078,227.977043 174.930817,228.02713 175.140557,228.077217 L171.286991,231.228 C170.695339,231.711652 170.606122,232.591304 171.091339,233.182957 C171.574991,233.776174 172.454643,233.863826 173.046296,233.380174 L181.208904,226.706087 L181.21047,226.706087 L181.913252,226.131652 C182.033774,226.033043 182.11673,225.909391 182.196557,225.784174 C183.634991,224.28313 184.395687,222.600522 185.264383,220.398261 C185.538296,219.703304 185.877948,219.202435 186.187861,218.762609 C190.269948,217.067478 198.31047,213.552 198.693948,213.40487 C212.647861,208.094087 225.703339,196.940348 228.0136,194.669217 L228.462817,194.268522 C229.608557,193.629913 230.162643,192.870783 230.640035,191.538783 C231.687165,188.616522 230.167339,185.398435 227.245078,184.351304" id="Fill-168" fill="#F7D9AD"></path>
          <g id="Group-172" transform="translate(2.646783, 0.000000)">
            <mask id="mask-4" fill="white">
              <use xlink:href="#path-3"></use>
            </mask>
            <g id="Clip-171"></g>
            <path d="M65.5309565,34.2701217 L8.05147826,1.08438261 C6.09026087,-0.0472695652 4.29026087,-0.261704348 2.89252174,0.292382609 L2.89095652,0.290817391 L2.69530435,0.38786087 C2.57791304,0.441078261 2.45895652,0.492730435 2.34782609,0.558469565 L-8.52651283e-14,1.72142609 C-8.52651283e-14,1.72142609 0.36626087,1.87012174 0.884347826,2.07986087 C0.341217391,3.01273043 0.0266086957,4.23203478 0.0266086957,5.71586087 L0.0266086957,51.2777739 C0.0266086957,56.3741217 3.63756522,62.6271652 8.05147826,65.1753391 L45.8577391,87.0022957 C47.4198261,100.297252 52.5161739,107.647513 56.5309565,110.918817 L58.86,114.163513 L61.3173913,112.947339 C62.0264348,112.696904 62.0092174,111.810991 60.8055652,110.446122 C55.5636522,104.507687 57.312,93.6169043 57.312,93.6169043 L65.5309565,98.3610783 C66.42,98.8760348 67.2746087,99.1922087 68.076,99.3424696 L68.4923478,100.256557 L70.8292174,99.0857739 C72.4946087,98.3469913 73.5542609,96.4828174 73.5542609,93.7296 L73.5542609,48.167687 C73.5542609,43.0729043 69.9448696,36.8182957 65.5309565,34.2701217" id="Fill-170" fill="#7AB9DD" mask="url(#mask-4)"></path>
          </g>
          <path d="M65.5043478,35.6044696 L8.02486957,2.41873043 C3.61095652,-0.129443478 0,1.95542609 0,7.05177391 L0,52.6121217 C0,57.7084696 3.61095652,63.9630783 8.02486957,66.5112522 L45.8311304,88.3382087 C48.9365217,114.770035 66.0208696,117.722035 60.7789565,111.782035 C55.5370435,105.842035 57.2853913,94.9512522 57.2853913,94.9512522 L65.5043478,99.6969913 C69.9182609,102.245165 73.5276522,100.160296 73.5276522,95.0639478 L73.5276522,49.5020348 C73.5276522,44.4072522 69.9182609,38.1526435 65.5043478,35.6044696" id="Fill-173" fill="#A8D0E6"></path>
          <path d="M49.5449217,59.1553565 C49.5449217,59.2508348 49.4870087,59.2993565 49.4040522,59.266487 L46.7150087,58.2318783 C46.3769217,58.1019652 46.1077043,58.2350087 46.0247478,58.5637043 C45.7821391,59.5106609 45.4096174,60.3370957 44.9118783,61.0164 C44.7381391,61.2574435 44.7506609,61.686313 44.9494435,62.1261391 L46.530313,65.610313 C46.5757043,65.7089217 46.5694435,65.8169217 46.5115304,65.8497913 L44.6035304,66.9517043 C44.5581391,66.978313 44.514313,66.9579652 44.4830087,66.9407478 C44.4438783,66.9172696 44.4125739,66.8844 44.3859652,66.8484 L42.1649217,63.7398783 C41.8894435,63.3532696 41.5200522,63.1231826 41.2242261,63.1529217 C40.3852696,63.2452696 39.4837043,63.1529217 38.5430087,62.8899652 C38.2096174,62.794487 37.9607478,62.9682261 37.9090957,63.3235304 L37.4551826,66.1644 C37.4426609,66.2536174 37.3722261,66.2786609 37.2877043,66.2317043 L34.5939652,64.674313 C34.5110087,64.6273565 34.4405739,64.5193565 34.4280522,64.4160522 L33.9804,61.0539652 C33.922487,60.6282261 33.6720522,60.174313 33.346487,59.8894435 C32.4308348,59.0880522 31.5480522,58.1567478 30.7216174,57.1330957 C30.5870087,56.9671826 30.4351826,56.8341391 30.286487,56.7496174 C30.114313,56.6494435 29.934313,56.6056174 29.7871826,56.6447478 L27.5473565,57.1925739 C27.5160522,57.1972696 27.4831826,57.1925739 27.4518783,57.1737913 C27.4268348,57.1597043 27.3751826,57.1221391 27.3297913,57.0454435 L25.4233565,53.7412696 C25.3654435,53.6426609 25.3591826,53.5346609 25.4030087,53.4798783 L26.9776174,51.8379652 C27.1764,51.6282261 27.1889217,51.2071826 27.0167478,50.7673565 C26.5174435,49.518313 26.1324,48.2551826 25.8897913,47.0280522 C25.8005739,46.5991826 25.5313565,46.1562261 25.1979652,45.8964 L22.4917043,43.8021391 C22.4087478,43.7395304 22.3508348,43.6252696 22.3508348,43.5282261 L22.3508348,40.4165739 C22.3508348,40.3210957 22.4087478,40.2741391 22.4917043,40.3070087 L25.1604,41.3306609 C25.5000522,41.4590087 25.7739652,41.3306609 25.858487,40.9941391 C26.0948348,40.0440522 26.4595304,39.2050957 26.9525739,38.5210957 C27.1247478,38.2816174 27.1059652,37.8496174 26.9071826,37.4176174 L25.3137913,33.9115304 C25.2699652,33.8113565 25.2762261,33.7033565 25.3325739,33.670487 L27.2405739,32.5701391 C27.2844,32.5435304 27.3297913,32.562313 27.3626609,32.5795304 C27.4002261,32.6030087 27.4330957,32.6358783 27.4581391,32.6734435 L29.6666609,35.766313 C29.9468348,36.1576174 30.3193565,36.3861391 30.6136174,36.3564 C31.446313,36.2609217 32.3478783,36.3376174 33.2885739,36.6005739 C33.6141391,36.6866609 33.8645739,36.5191826 33.922487,36.1685739 L34.3826609,33.3089217 C34.3951826,33.2197043 34.4656174,33.1946609 34.5485739,33.2416174 L37.2438783,34.7974435 C37.3268348,34.8459652 37.3972696,34.9524 37.4097913,35.0572696 L37.8590087,38.3958783 C37.9153565,38.8216174 38.1642261,39.2833565 38.4976174,39.5713565 C39.4649217,40.410313 40.3852696,41.3791826 41.2430087,42.4576174 C41.5388348,42.8270087 41.9035304,43.0226609 42.1837043,42.9553565 L44.3922261,42.3981391 C44.4250957,42.3950087 44.4564,42.3981391 44.4892696,42.4169217 C44.514313,42.4310087 44.5659652,42.4685739 44.6097913,42.5468348 L46.5177913,45.8494435 C46.5757043,45.9480522 46.5819652,46.0560522 46.5365739,46.1124 L44.9557043,47.7637043 C44.7569217,47.9671826 44.7444,48.3882261 44.9165739,48.8280522 C45.4158783,50.0833565 45.7884,51.3402261 46.0310087,52.5673565 C46.1139652,52.9993565 46.3894435,53.4470087 46.7228348,53.6974435 L49.410313,55.774487 C49.4932696,55.8370957 49.5511826,55.9513565 49.5511826,56.0484 L49.5511826,59.158487 L49.5449217,59.1553565 Z M49.6920522,53.9713565 L47.5414435,52.3075304 C47.3176174,51.3433565 47.0296174,50.3729217 46.6774435,49.4009217 L47.9452696,48.0845739 C48.4821391,47.5226609 48.3991826,46.2845739 47.7402261,45.1513565 L45.8322261,41.8471826 C45.4737913,41.2273565 45.0010957,40.7249217 44.4955304,40.4322261 C44.0979652,40.2037043 43.7207478,40.1254435 43.4014435,40.2068348 L41.6217913,40.6435304 C40.9299652,39.8217913 40.2068348,39.0579652 39.4586609,38.3661391 L39.1002261,35.7068348 C38.9468348,34.5610957 38.1595304,33.3370957 37.2313565,32.8017913 L34.5360522,31.2459652 C33.6078783,30.7106609 32.8205739,31.0252696 32.6671826,31.9925739 L32.2962261,34.2918783 C31.5793565,34.1369217 30.8828348,34.0727478 30.2160522,34.102487 L28.4567478,31.6231826 C28.1358783,31.1724 27.7524,30.8108348 27.3564,30.582313 C26.8492696,30.2896174 26.370313,30.2410957 26.0181391,30.4524 L24.1038783,31.5496174 C23.4511826,31.9268348 23.3619652,33.0647478 23.8988348,34.246487 L25.1791826,37.062313 C24.8270087,37.6351826 24.5452696,38.278487 24.3292696,38.9875304 L22.2037043,38.1751826 C21.2880522,37.8230087 20.6228348,38.3489217 20.6228348,39.4195304 L20.6228348,42.5311826 C20.6228348,43.6017913 21.2880522,44.8962261 22.2037043,45.6005739 L24.3793565,47.286313 C24.6031826,48.2426609 24.8974435,49.2193565 25.2558783,50.194487 L23.9958783,51.4920522 C23.4574435,52.0524 23.5419652,53.290487 24.2009217,54.4252696 L26.1073565,57.7278783 C26.4657913,58.3492696 26.9400522,58.8517043 27.4456174,59.1444 C27.8416174,59.3729217 28.2188348,59.4496174 28.5397043,59.3697913 L30.3381391,58.9284 C30.9845739,59.6937913 31.662313,60.4028348 32.3604,61.0570957 L32.7188348,63.7477043 C32.8722261,64.8934435 33.6595304,66.1158783 34.5877043,66.6527478 L37.2877043,68.2117043 C38.2158783,68.7470087 39.0047478,68.4324 39.1565739,67.4650957 L39.5228348,65.1924 C40.2459652,65.350487 40.942487,65.4209217 41.6092696,65.3990087 L43.3810957,67.8861391 C43.7019652,68.3369217 44.0854435,68.698487 44.4830087,68.9285739 C44.9870087,69.2197043 45.4612696,69.2635304 45.8197043,69.0569217 L47.7261391,67.9565739 C48.3804,67.5793565 48.4696174,66.4414435 47.9311826,65.2581391 L46.6649217,62.4736174 C47.0170957,61.9007478 47.3113565,61.2652696 47.5289217,60.562487 L49.6795304,61.390487 C50.5936174,61.7410957 51.2605738,61.2167478 51.2605738,60.1445739 L51.2605738,57.034487 C51.2729217,55.9701391 50.6077043,54.6772696 49.6920522,53.9713565 L49.6920522,53.9713565 Z" id="Fill-175" fill="#FFFFFF"></path>
          <path d="M35.9449043,55.3822435 C33.2496,53.8264174 31.0614261,50.0354609 31.0614261,46.9238087 C31.0614261,43.8137217 33.2496,42.5490261 35.9449043,44.1048522 C38.6386435,45.6606783 40.8283826,49.4516348 40.8283826,52.563287 C40.8283826,55.6749391 38.6386435,56.9380696 35.9449043,55.3822435 M35.9449043,42.1107652 C32.2963826,40.0039826 29.3334261,41.7147652 29.3334261,45.9267652 C29.3334261,50.1387652 32.2963826,55.271113 35.9449043,57.3778957 C39.5934261,59.4846783 42.5563826,57.7723304 42.5563826,53.5603304 C42.5563826,49.3483304 39.5934261,44.2159826 35.9449043,42.1107652" id="Fill-177" fill="#FFFFFF"></path>
          <path d="M366.446278,211.111357 C386.4748,222.504574 436.250278,241.01953 441.974278,259.1604 C445.902974,271.605443 410.842104,284.952052 410.655843,273.267704 C397.029061,266.819009 378.210452,260.551878 364.856017,254.121965 C355.090626,249.418487 349.365061,246.731009 345.661757,240.013096 C342.150974,233.644226 339.936191,226.575704 339.263148,208.099878 C339.208365,206.586313 337.306626,202.396226 335.221757,200.039009 C351.553235,207.2484 346.419322,199.718139 366.446278,211.111357" id="Fill-179" fill="#8BA7C1"></path>
          <path d="M382.648,92.7738783 C386.130609,105.273704 384.196,112.098052 387.97287,124.9344 C391.748174,137.770748 392.150435,160.54153 397.298435,173.725357 C406.273391,182.434226 418.580696,190.474748 428.280348,196.342748 C432.00713,198.598226 439.872348,202.177878 441.061913,202.182617 C447.294609,202.202922 446.590261,195.056139 441.918087,191.341878 C439.538957,189.44953 440.562609,189.615443 434.502087,183.783443 C431.913217,181.290052 429.754783,176.559965 425.981043,172.092835 C420.917565,166.102748 413.620522,161.40553 413.279304,160.611965 C409.169043,151.043791 404.769217,113.752487 401.820348,107.720139 C393.698435,91.108487 394.194609,100.557704 382.648,92.7738783" id="Fill-181" fill="#DDAB85"></path>
          <path d="M392.700296,94.1029043 C393.302904,94.0089913 393.071252,93.5331652 393.540817,94.1326435 C393.050904,93.5081217 397.533687,95.8559478 399.981687,100.625165 C402.431252,105.395948 407.02047,118.147774 408.219426,123.890557 C411.270035,138.515948 412.004122,141.003078 411.567426,142.52447 C411.121339,144.083426 407.74673,145.864643 403.951078,147.547252 C400.662557,149.00447 396.65873,150.665165 395.567774,150.367774 C394.002557,149.942035 393.930557,144.97873 393.681687,143.933165 C390.349339,129.879078 388.566557,115.832817 384.957165,101.968122 C387.539774,99.3589043 390.111426,96.7121217 392.700296,94.1029043" id="Fill-183" fill="#5B6277"></path>
          <path d="M394.048574,115.695078 C395.483878,118.892817 396.851878,119.77873 398.097791,122.755774 C399.34527,125.732817 401.056052,130.83073 401.311183,133.843774 C401.708748,138.530035 403.729443,142.99247 403.951704,147.547252 C403.903183,147.645861 395.446313,151.197339 393.632226,151.283426 C391.437791,151.38673 395.008052,145.449861 394.921965,143.324296 C391.545791,129.573861 388.481096,115.74673 384.921791,102.077687 C388.445096,105.9876 392.023183,111.184122 394.048574,115.695078" id="Fill-185" fill="#51566D"></path>
          <path d="M329.49713,109.228539 C348.608435,99.1015826 362.002,96.2341043 381.651739,90.8278435 C386.264435,89.5584522 389.604609,91.5713217 393.284435,93.5982783 C396.175391,95.1901043 396.91887,97.8901043 399.083565,100.034452 C396.63087,104.514104 397.872087,107.849583 398.196087,113.035148 C398.595217,119.3868 404.258174,175.517061 402.237478,197.015322 C401.566,204.157409 399.880261,211.459148 386.073478,215.826104 C373.403043,219.834626 356.152783,224.990452 343.192783,223.664713 C338.81487,223.217061 338.777304,220.053757 338.702174,218.737409 C338.02913,206.868365 332.383391,188.724365 332.19087,181.226974 C332.029652,174.911322 334.945652,164.516713 333.505652,157.734626 C332.195565,151.562974 332.156435,145.7388 331.43487,139.662626 C326.980261,138.310278 317.534174,138.119322 314.679217,134.085757 C306.598,122.664365 322.312783,113.035148 329.49713,109.228539" id="Fill-187" fill="#5B6277"></path>
          <g id="Group-191" transform="translate(306.081478, 163.790609)">
            <mask id="mask-6" fill="white">
              <use xlink:href="#path-5"></use>
            </mask>
            <g id="Clip-190"></g>
            <path d="M92.1039652,140.3748 L238.771096,57.1114957 C241.323965,55.6621043 241.336487,51.9885391 238.794574,50.5219304 L153.653009,1.36314783 C152.486922,0.690104348 151.050052,0.685408696 149.87927,1.35062609 L3.21213913,84.6139304 C0.659269565,86.0617565 0.645182609,89.7353217 3.18709565,91.2034957 L88.3302261,140.360713 C89.496313,141.033757 90.9316174,141.040017 92.1039652,140.3748" id="Fill-189" fill="#F4F6F9" mask="url(#mask-6)"></path>
          </g>
          <path d="M328.486783,183.578713 C329.308522,177.950191 334.935478,163.968104 333.918087,160.418191 C330.252348,147.620974 327.071826,143.421496 334.290609,133.080104 C344.218783,143.191409 343.597391,177.83593 341.407652,201.7008 C341.906957,203.076626 339.63113,207.2448 338.843826,206.975583 C336.710435,206.244626 332.662783,204.746713 332.481217,202.779235 C331.852,195.975235 327.510087,190.259061 328.486783,183.578713" id="Fill-192" fill="#51566D"></path>
          <polygon id="Fill-194" fill="#E4E6EA" points="358.666052 228.1896 358.666052 231.14473 364.056661 230.016209"></polygon>
          <path d="M411.724417,261.807496 L491.393983,215.877757 C492.353461,215.325235 492.353461,213.940017 491.393983,213.387496 L440.300591,183.93167 C439.85607,183.676539 439.308243,183.676539 438.863722,183.93167 L359.4712,229.701757 C358.389635,230.326278 358.389635,231.8868 359.4712,232.509757 L410.289113,261.807496 C410.733635,262.064191 411.279896,262.064191 411.724417,261.807496" id="Fill-196" fill="#E4E6EA"></path>
          <polygon id="Fill-198" fill="#E4E6EA" points="492.113043 211.541635 492.113043 214.739374 486.029043 213.787722"></polygon>
          <path d="M411.938539,258.835148 L491.348278,213.054104 C492.514365,212.382626 492.514365,210.700017 491.348278,210.026974 L440.513148,180.721409 C440.196974,180.539843 439.807235,180.539843 439.491061,180.721409 L359.270539,226.968887 C358.464452,227.433757 358.464452,228.596713 359.270539,229.061583 L410.914887,258.835148 C411.231061,259.018278 411.6208,259.018278 411.938539,258.835148" id="Fill-200" fill="#C2C7CC"></path>
          <path d="M429.790157,206.438713 L422.529113,202.251757 C422.045461,201.973148 421.449113,201.976278 420.970157,202.261148 C417.017983,204.605843 398.975722,215.05367 395.602678,217.008626 C395.355374,217.151061 395.36633,217.500104 395.613635,217.642539 L402.984243,221.892104 C403.795026,222.358539 405.019026,222.410191 405.721809,222.006365 L429.985809,208.016452 C430.688591,207.612626 430.600939,206.905148 429.790157,206.438713" id="Fill-202" fill="#E4E6EA"></path>
          <path d="M393.696243,216.534678 L392.392417,215.781809 C392.01833,215.565809 392.065287,215.187026 392.495722,214.938157 L404.014157,208.289113 C404.444591,208.040243 405.100417,208.013635 405.472939,208.22807 L406.77833,208.982504 C407.150852,209.196939 407.10233,209.575722 406.673461,209.824591 L395.155026,216.473635 C394.726157,216.722504 394.068765,216.749113 393.696243,216.534678" id="Fill-204" fill="#E4E6EA"></path>
          <path d="M407.262765,208.619061 L405.957374,207.866191 C405.584852,207.650191 405.631809,207.271409 406.062243,207.022539 L417.579113,200.373496 C418.009548,200.124626 418.666939,200.098017 419.037896,200.312452 L420.343287,201.066887 C420.715809,201.281322 420.668852,201.660104 420.239983,201.908974 L408.721548,208.558017 C408.291113,208.806887 407.635287,208.833496 407.262765,208.619061" id="Fill-206" fill="#E4E6EA"></path>
          <path d="M400.028957,235.491496 L393.336087,239.356017 C392.888435,239.614278 392.207565,239.642452 391.820957,239.418626 L389.967739,238.348017 C389.58113,238.125757 389.629652,237.731322 390.075739,237.474626 L396.768609,233.610104 C397.216261,233.351843 397.89713,233.32367 398.285304,233.54593 L400.138522,234.616539 C400.52513,234.840365 400.476609,235.233235 400.028957,235.491496" id="Fill-208" fill="#E4E6EA"></path>
          <path d="M409.608243,229.96127 L402.915374,233.825791 C402.467722,234.082487 401.786852,234.110661 401.400243,233.8884 L399.547026,232.817791 C399.160417,232.59553 399.208939,232.201096 399.655026,231.942835 L406.347896,228.078313 C406.795548,227.821617 407.476417,227.793443 407.864591,228.015704 L409.717809,229.086313 C410.104417,229.308574 410.055896,229.703009 409.608243,229.96127" id="Fill-210" fill="#E4E6EA"></path>
          <path d="M419.18753,224.430261 L412.494661,228.294783 C412.047009,228.553043 411.366139,228.581217 410.97953,228.357391 L409.126313,227.286783 C408.739704,227.064522 408.788226,226.670087 409.234313,226.413391 L415.927183,222.54887 C416.374835,222.290609 417.055704,222.262435 417.442313,222.484696 L419.297096,223.555304 C419.683704,223.77913 419.635183,224.172 419.18753,224.430261" id="Fill-212" fill="#E4E6EA"></path>
          <path d="M428.766817,218.900035 L422.073948,222.764557 C421.626296,223.021252 420.945426,223.049426 420.558817,222.827165 L418.7056,221.756557 C418.318991,221.534296 418.367513,221.139861 418.8136,220.8816 L425.50647,217.017078 C425.954122,216.760383 426.634991,216.732209 427.0216,216.95447 L428.876383,218.025078 C429.262991,218.247339 429.21447,218.641774 428.766817,218.900035" id="Fill-214" fill="#E4E6EA"></path>
          <path d="M438.346104,213.369026 L431.653235,217.233548 C431.205583,217.491809 430.524713,217.519983 430.138104,217.296157 L428.284887,216.225548 C427.898278,216.003287 427.9468,215.608852 428.392887,215.352157 L435.085757,211.487635 C435.533409,211.229374 436.214278,211.2012 436.600887,211.423461 L438.454104,212.49407 C438.842278,212.717896 438.792191,213.110765 438.346104,213.369026" id="Fill-216" fill="#E4E6EA"></path>
          <path d="M447.925548,207.8388 L441.232678,211.703322 C440.785026,211.960017 440.104157,211.988191 439.717548,211.76593 L437.86433,210.695322 C437.477722,210.473061 437.526243,210.078626 437.97233,209.820365 L444.6652,205.955843 C445.112852,205.699148 445.793722,205.670974 446.18033,205.893235 L448.033548,206.963843 C448.421722,207.186104 448.371635,207.580539 447.925548,207.8388" id="Fill-218" fill="#E4E6EA"></path>
          <path d="M457.504835,202.307791 L450.811965,206.172313 C450.364313,206.430574 449.683443,206.458748 449.296835,206.234922 L447.443617,205.164313 C447.057009,204.942052 447.10553,204.547617 447.551617,204.290922 L454.244487,200.4264 C454.692139,200.168139 455.373009,200.139965 455.759617,200.362226 L457.612835,201.432835 C457.999443,201.656661 457.950922,202.04953 457.504835,202.307791" id="Fill-220" fill="#E4E6EA"></path>
          <path d="M404.302626,237.959217 L397.609757,241.823739 C397.162104,242.080435 396.481235,242.108609 396.094626,241.886348 L394.241409,240.815739 C393.8548,240.593478 393.903322,240.199043 394.349409,239.940783 L401.042278,236.076261 C401.48993,235.819565 402.1708,235.791391 402.558974,236.013652 L404.412191,237.084261 C404.7988,237.306522 404.750278,237.700957 404.302626,237.959217" id="Fill-222" fill="#E4E6EA"></path>
          <path d="M413.88207,232.428365 L407.1892,236.292887 C406.741548,236.551148 406.060678,236.579322 405.67407,236.355496 L403.820852,235.284887 C403.434243,235.062626 403.482765,234.668191 403.928852,234.411496 L410.621722,230.546974 C411.069374,230.288713 411.750243,230.260539 412.136852,230.4828 L413.991635,231.553409 C414.378243,231.777235 414.329722,232.170104 413.88207,232.428365" id="Fill-224" fill="#E4E6EA"></path>
          <path d="M423.461357,226.897983 L416.768487,230.762504 C416.320835,231.0192 415.639965,231.047374 415.253357,230.825113 L413.400139,229.754504 C413.01353,229.532243 413.062052,229.137809 413.508139,228.879548 L420.201009,225.015026 C420.648661,224.75833 421.32953,224.730157 421.716139,224.952417 L423.569357,226.023026 C423.95753,226.245287 423.909009,226.639722 423.461357,226.897983" id="Fill-226" fill="#E4E6EA"></path>
          <path d="M433.040643,221.36713 L426.347774,225.231652 C425.900122,225.489913 425.219252,225.518087 424.832643,225.294261 L422.979426,224.223652 C422.592817,224.001391 422.641339,223.606957 423.087426,223.350261 L429.780296,219.485739 C430.227948,219.227478 430.908817,219.199304 431.295426,219.421565 L433.148643,220.492174 C433.536817,220.716 433.48673,221.10887 433.040643,221.36713" id="Fill-228" fill="#E4E6EA"></path>
          <path d="M442.61993,215.836904 L435.927061,219.701426 C435.479409,219.958122 434.798539,219.986296 434.41193,219.764035 L432.558713,218.693426 C432.172104,218.471165 432.220626,218.07673 432.666713,217.81847 L439.359583,213.953948 C439.807235,213.697252 440.488104,213.669078 440.874713,213.891339 L442.72793,214.961948 C443.114539,215.184209 443.066017,215.578643 442.61993,215.836904" id="Fill-230" fill="#E4E6EA"></path>
          <path d="M452.199217,210.305896 L445.506348,214.170417 C445.058696,214.428678 444.377826,214.456852 443.991217,214.233026 L442.138,213.162417 C441.751391,212.940157 441.799913,212.545722 442.246,212.289026 L448.93887,208.424504 C449.386522,208.166243 450.067391,208.13807 450.454,208.36033 L452.307217,209.430939 C452.693826,209.654765 452.645304,210.047635 452.199217,210.305896" id="Fill-232" fill="#E4E6EA"></path>
          <path d="M461.778504,204.77567 L455.085635,208.640191 C454.637983,208.896887 453.957113,208.925061 453.570504,208.7028 L451.717287,207.632191 C451.330678,207.40993 451.3792,207.015496 451.825287,206.757235 L458.518157,202.892713 C458.965809,202.636017 459.646678,202.607843 460.033287,202.830104 L461.886504,203.900713 C462.273113,204.122974 462.224591,204.517409 461.778504,204.77567" id="Fill-234" fill="#E4E6EA"></path>
          <path d="M408.576452,240.426313 L401.883583,244.290835 C401.43593,244.549096 400.755061,244.57727 400.368452,244.353443 L398.515235,243.282835 C398.128626,243.060574 398.177148,242.666139 398.623235,242.409443 L405.316104,238.544922 C405.763757,238.286661 406.444626,238.258487 406.831235,238.480748 L408.684452,239.551357 C409.072626,239.775183 409.024104,240.168052 408.576452,240.426313" id="Fill-236" fill="#E4E6EA"></path>
          <path d="M418.155739,234.896087 L411.46287,238.760609 C411.015217,239.017304 410.334348,239.045478 409.947739,238.823217 L408.094522,237.752609 C407.707913,237.530348 407.756435,237.135913 408.202522,236.877652 L414.895391,233.01313 C415.343043,232.756435 416.023913,232.728261 416.410522,232.950522 L418.263739,234.02113 C418.651913,234.243391 418.601826,234.637826 418.155739,234.896087" id="Fill-238" fill="#E4E6EA"></path>
          <path d="M427.735026,229.365078 L421.042157,233.2296 C420.594504,233.487861 419.913635,233.516035 419.527026,233.292209 L417.673809,232.2216 C417.2872,231.999339 417.335722,231.604904 417.781809,231.348209 L424.474678,227.483687 C424.92233,227.225426 425.6032,227.197252 425.989809,227.419513 L427.843026,228.490122 C428.229635,228.713948 428.181113,229.106817 427.735026,229.365078" id="Fill-240" fill="#E4E6EA"></path>
          <path d="M437.31447,223.834852 L430.6216,227.699374 C430.173948,227.95607 429.493078,227.984243 429.10647,227.761983 L427.253252,226.691374 C426.866643,226.469113 426.915165,226.074678 427.361252,225.816417 L434.054122,221.951896 C434.501774,221.6952 435.182643,221.667026 435.569252,221.889287 L437.42247,222.959896 C437.809078,223.182157 437.760557,223.576591 437.31447,223.834852" id="Fill-242" fill="#E4E6EA"></path>
          <path d="M446.893757,218.303843 L440.200887,222.168365 C439.753235,222.426626 439.072365,222.4548 438.685757,222.230974 L436.832539,221.160365 C436.44593,220.938104 436.494452,220.54367 436.940539,220.286974 L443.633409,216.422452 C444.081061,216.164191 444.76193,216.136017 445.148539,216.358278 L447.001757,217.428887 C447.388365,217.652713 447.339843,218.045583 446.893757,218.303843" id="Fill-244" fill="#E4E6EA"></path>
          <path d="M456.473043,212.773617 L449.780174,216.638139 C449.332522,216.894835 448.651652,216.923009 448.265043,216.700748 L446.411826,215.630139 C446.025217,215.407878 446.073739,215.013443 446.519826,214.755183 L453.212696,210.890661 C453.660348,210.633965 454.341217,210.605791 454.727826,210.828052 L456.581043,211.898661 C456.967652,212.120922 456.91913,212.515357 456.473043,212.773617" id="Fill-246" fill="#E4E6EA"></path>
          <path d="M466.05233,207.242609 L459.359461,211.10713 C458.911809,211.365391 458.230939,211.393565 457.84433,211.169739 L455.991113,210.09913 C455.604504,209.87687 455.653026,209.482435 456.099113,209.225739 L462.791983,205.361217 C463.239635,205.102957 463.920504,205.074783 464.307113,205.297043 L466.16033,206.367652 C466.546939,206.591478 466.498417,206.984348 466.05233,207.242609" id="Fill-248" fill="#E4E6EA"></path>
          <path d="M412.850278,242.894191 L406.157409,246.758713 C405.709757,247.015409 405.028887,247.043583 404.642278,246.821322 L402.789061,245.750713 C402.402452,245.528452 402.450974,245.134017 402.897061,244.875757 L409.58993,241.011235 C410.037583,240.754539 410.718452,240.726365 411.105061,240.948626 L412.958278,242.019235 C413.346452,242.241496 413.296365,242.63593 412.850278,242.894191" id="Fill-250" fill="#E4E6EA"></path>
          <path d="M422.429565,237.363183 L415.736696,241.227704 C415.289043,241.485965 414.608174,241.514139 414.221565,241.290313 L412.368348,240.219704 C411.981739,239.997443 412.030261,239.603009 412.476348,239.346313 L419.169217,235.481791 C419.61687,235.22353 420.297739,235.195357 420.684348,235.417617 L422.537565,236.488226 C422.924174,236.712052 422.875652,237.104922 422.429565,237.363183" id="Fill-252" fill="#E4E6EA"></path>
          <path d="M432.008852,231.832957 L425.315983,235.697478 C424.86833,235.954174 424.187461,235.982348 423.800852,235.760087 L421.947635,234.689478 C421.561026,234.467217 421.609548,234.072783 422.055635,233.814522 L428.748504,229.95 C429.196157,229.693304 429.877026,229.66513 430.263635,229.887391 L432.116852,230.958 C432.503461,231.180261 432.454939,231.574696 432.008852,231.832957" id="Fill-254" fill="#E4E6EA"></path>
          <path d="M441.588139,226.301948 L434.89527,230.16647 C434.447617,230.42473 433.766748,230.452904 433.380139,230.229078 L431.526922,229.15847 C431.140313,228.936209 431.188835,228.541774 431.634922,228.285078 L438.327791,224.420557 C438.775443,224.162296 439.456313,224.134122 439.842922,224.356383 L441.696139,225.426991 C442.082748,225.650817 442.034226,226.043687 441.588139,226.301948" id="Fill-256" fill="#E4E6EA"></path>
          <path d="M451.167426,220.771722 L444.474557,224.636243 C444.026904,224.892939 443.346035,224.921113 442.959426,224.698852 L441.106209,223.628243 C440.7196,223.405983 440.768122,223.011548 441.214209,222.753287 L447.907078,218.888765 C448.35473,218.63207 449.0356,218.603896 449.422209,218.826157 L451.275426,219.896765 C451.662035,220.119026 451.613513,220.513461 451.167426,220.771722" id="Fill-258" fill="#E4E6EA"></path>
          <path d="M460.74687,215.240713 L454.054,219.105235 C453.606348,219.363496 452.925478,219.39167 452.53887,219.167843 L450.685652,218.097235 C450.299043,217.874974 450.347565,217.480539 450.793652,217.223843 L457.486522,213.359322 C457.934174,213.101061 458.615043,213.072887 459.001652,213.295148 L460.85487,214.365757 C461.241478,214.589583 461.192957,214.982452 460.74687,215.240713" id="Fill-260" fill="#E4E6EA"></path>
          <path d="M470.326157,209.710487 L463.633287,213.575009 C463.185635,213.831704 462.504765,213.859878 462.118157,213.637617 L460.264939,212.567009 C459.87833,212.344748 459.926852,211.950313 460.372939,211.692052 L467.065809,207.82753 C467.513461,207.570835 468.19433,207.542661 468.580939,207.764922 L470.434157,208.83553 C470.820765,209.057791 470.772243,209.452226 470.326157,209.710487" id="Fill-262" fill="#E4E6EA"></path>
          <path d="M417.123948,245.36113 L410.431078,249.225652 C409.983426,249.483913 409.302557,249.512087 408.915948,249.288261 L407.06273,248.217652 C406.676122,247.995391 406.724643,247.600957 407.17073,247.344261 L413.8636,243.479739 C414.311252,243.221478 414.992122,243.193304 415.37873,243.415565 L417.231948,244.486174 C417.618557,244.71 417.570035,245.10287 417.123948,245.36113" id="Fill-264" fill="#E4E6EA"></path>
          <path d="M426.703391,239.830904 L420.010522,243.695426 C419.56287,243.952122 418.882,243.980296 418.495391,243.758035 L416.642174,242.687426 C416.255565,242.465165 416.304087,242.07073 416.750174,241.81247 L423.443043,237.947948 C423.890696,237.691252 424.571565,237.663078 424.958174,237.885339 L426.811391,238.955948 C427.198,239.178209 427.149478,239.572643 426.703391,239.830904" id="Fill-266" fill="#E4E6EA"></path>
          <path d="M436.282678,234.300052 L429.589809,238.164574 C429.142157,238.422835 428.461287,238.451009 428.074678,238.227183 L426.221461,237.156574 C425.834852,236.934313 425.883374,236.539878 426.329461,236.283183 L433.02233,232.418661 C433.469983,232.1604 434.150852,232.132226 434.537461,232.354487 L436.390678,233.425096 C436.777287,233.648922 436.728765,234.041791 436.282678,234.300052" id="Fill-268" fill="#E4E6EA"></path>
          <path d="M445.861965,228.769826 L439.169096,232.634348 C438.721443,232.891043 438.040574,232.919217 437.653965,232.696957 L435.800748,231.626348 C435.414139,231.404087 435.462661,231.009652 435.908748,230.751391 L442.601617,226.88687 C443.04927,226.630174 443.730139,226.602 444.116748,226.824261 L445.969965,227.89487 C446.356574,228.11713 446.308052,228.511565 445.861965,228.769826" id="Fill-270" fill="#E4E6EA"></path>
          <path d="M455.441252,223.238817 L448.748383,227.103339 C448.30073,227.3616 447.619861,227.389774 447.233252,227.165948 L445.380035,226.095339 C444.993426,225.873078 445.041948,225.478643 445.488035,225.221948 L452.180904,221.357426 C452.628557,221.099165 453.309426,221.070991 453.696035,221.293252 L455.549252,222.363861 C455.935861,222.587687 455.887339,222.980557 455.441252,223.238817" id="Fill-272" fill="#E4E6EA"></path>
          <path d="M465.020539,217.708591 L458.32767,221.573113 C457.880017,221.829809 457.199148,221.857983 456.812539,221.635722 L454.959322,220.565113 C454.572713,220.342852 454.621235,219.948417 455.067322,219.690157 L461.760191,215.825635 C462.207843,215.568939 462.888713,215.540765 463.275322,215.763026 L465.128539,216.833635 C465.515148,217.055896 465.466626,217.45033 465.020539,217.708591" id="Fill-274" fill="#E4E6EA"></path>
          <path d="M474.599983,212.177583 L467.907113,216.042104 C467.459461,216.300365 466.778591,216.328539 466.391983,216.104713 L464.538765,215.034104 C464.152157,214.811843 464.200678,214.417409 464.646765,214.160713 L471.339635,210.296191 C471.787287,210.03793 472.468157,210.009757 472.854765,210.232017 L474.707983,211.302626 C475.094591,211.526452 475.04607,211.919322 474.599983,212.177583" id="Fill-276" fill="#E4E6EA"></path>
          <path d="M416.359809,260.1864 L496.403461,214.040661 C496.86207,213.776139 497.145374,213.286226 497.145374,212.755617 L497.145374,146.775443 C497.145374,145.6344 495.910417,144.922226 494.922765,145.491965 L415.045026,191.542226 C414.586417,191.805183 414.303113,192.295096 414.303113,192.825704 L414.303113,258.9984 C414.303113,260.053357 415.445722,260.712313 416.359809,260.1864" id="Fill-278" fill="#E4E6EA"></path>
          <path d="M497.145061,146.775443 C497.145061,145.6344 495.910104,144.922226 494.922452,145.491965 L415.044713,191.542226 C414.586104,191.806748 414.3028,192.296661 414.3028,192.825704 L414.3028,250.954748 L497.145061,166.162226 L497.145061,146.775443 Z" id="Fill-280" fill="#E4E6EA"></path>
          <path d="M417.775235,261.800609 L415.022017,260.202522 C415.022017,260.202522 418.991409,257.158174 418.919409,257.267739 C418.847409,257.374174 417.775235,261.800609 417.775235,261.800609" id="Fill-282" fill="#E4E6EA"></path>
          <path d="M499.309443,147.107896 L496.488922,145.55207 C496.488922,145.55207 494.696748,151.477983 494.912748,151.333983 C495.130313,151.189983 499.309443,147.107896 499.309443,147.107896" id="Fill-284" fill="#E4E6EA"></path>
          <path d="M419.221183,261.83113 L499.382226,215.618087 C499.745357,215.408348 499.969183,215.021739 499.969183,214.602261 L499.969183,148.291826 C499.969183,147.218087 498.807791,146.546609 497.876487,147.081913 L417.825009,193.232348 C417.393009,193.482783 417.126922,193.942957 417.126922,194.442261 L417.126922,260.621217 C417.126922,261.696522 418.289878,262.368 419.221183,261.83113" id="Fill-286" fill="#DEDFE2"></path>
          <path d="M499.969026,148.272574 C499.969026,147.206661 498.817026,146.541443 497.893548,147.073617 L417.868678,193.206835 C417.408504,193.472922 417.126765,193.96127 417.126765,194.491878 L417.126765,252.620922 L499.969026,167.8284 L499.969026,148.272574 Z" id="Fill-288" fill="#E2E4E8"></path>
          <path d="M365.45127,219.270678 C350.443965,217.351722 323.083965,203.649809 320.504487,201.569635 C322.166748,196.969461 323.952661,192.435026 324.87927,187.632939 C327.879791,188.399896 335.719965,187.373113 339.046052,188.550157 C349.97127,192.414678 367.47353,208.788417 371.164313,212.887722 C380.226922,218.084243 378.190574,218.85433 368.932313,220.034515 C368.276487,220.037635 366.010052,219.341113 365.45127,219.270678" id="Fill-290" fill="#DDAB85"></path>
          <path d="M312.658678,189.848661 C312.658678,166.123096 314.21607,153.964487 315.156765,129.952487 C331.308243,135.098922 336.280939,132.439617 336.975896,155.06953 C337.1152,159.666574 333.435374,192.425009 330.630504,200.866226 C326.164939,205.026574 329.8432,203.678922 320.503548,200.895965 C320.412765,200.867791 312.658678,196.305183 312.658678,189.848661" id="Fill-292" fill="#DDAB85"></path>
          <path d="M380.069304,213.4584 L380.861304,212.254748 C381.246348,212.373704 381.811391,212.694574 382.719217,212.960661 C384.419043,213.456835 389.711043,214.302052 389.711043,214.302052 C390.781652,214.770052 391.046174,215.151965 391.075913,215.943965 L390.956957,216.505878 C390.442,217.305704 390.488957,217.390226 388.840783,217.299443 L381.374696,216.149009 C380.304087,215.679443 379.682696,214.201878 380.069304,213.4584" id="Fill-294" fill="#DDAB85"></path>
          <path d="M370.945496,212.649026 L372.866017,213.46607 C372.866017,213.46607 372.908278,213.4332 372.984974,213.375287 C374.39993,212.325026 376.174887,211.789722 377.971757,211.864852 C379.32567,211.9212 381.152278,212.127809 382.146191,212.800852 C382.146191,212.800852 382.312104,213.768157 381.643757,214.6932 L382.543757,216.331983 L393.750713,224.172157 C394.12793,224.438243 394.400278,224.81233 394.519235,225.23807 C394.639757,225.681026 394.635061,226.113026 394.134191,226.676504 C394.134191,226.676504 393.816452,227.235287 392.716104,227.197722 C392.323235,227.183635 391.946017,227.056852 391.634539,226.837722 L382.346539,220.537722 L393.556626,228.507809 C394.037148,228.849026 394.329843,229.501722 394.259409,230.063635 C394.181148,230.669374 394.181148,230.669374 393.603583,231.279809 C393.603583,231.279809 392.559583,232.179809 391.282365,231.431635 L380.596626,223.917026 L389.200626,230.149722 C389.72967,230.5332 389.969148,231.176504 389.786017,231.783809 C389.721843,231.996678 389.606017,232.212678 389.41193,232.4052 C389.41193,232.4052 388.698191,233.62607 386.877843,232.665026 L377.754191,226.355635 L384.26393,230.943287 C384.667757,231.235983 384.886887,231.697722 384.843061,232.176678 C384.799235,232.661896 384.9448,232.821548 384.386017,233.214417 C384.386017,233.214417 383.17767,234.399287 381.620278,233.068852 C381.620278,233.068852 374.162017,228.277722 371.865843,225.809374 C371.482365,225.397722 369.798191,223.533548 369.798191,223.533548 C369.798191,223.533548 369.3568,222.996678 368.406713,221.988678 L365.637843,219.302765 L370.945496,212.649026 Z" id="Fill-296" fill="#DDAB85"></path>
          <path d="M321.740539,117.815165 C317.890104,118.485078 314.096017,120.183339 312.99567,124.625426 C311.895322,129.065948 310.225235,136.2096 310.30193,141.587687 C310.362974,145.866991 308.921409,160.752209 310.638452,163.758991 C310.981235,164.360035 317.583322,165.682643 318.724365,165.879861 C321.261583,166.316557 325.4548,167.255687 328.276887,167.2776 C331.098974,167.297948 334.979148,167.623513 337.074974,166.055165 C338.860887,164.720035 339.382104,158.227513 339.604365,152.397078 C339.828191,146.566643 339.557409,139.119339 339.681061,132.780209 C333.8068,127.546122 329.485235,116.469078 321.740539,117.815165" id="Fill-298" fill="#5B6277"></path>
          <path d="M346.8964,83.8785913 C349.690313,92.8206783 350.591878,97.6399826 349.70753,107.660504 C349.637096,108.443113 356.275183,111.01007 362.09153,110.573374 C368.900226,110.063113 374.859009,106.290939 371.759878,103.570591 C366.079704,98.5869391 367.358487,87.7869391 367.901617,85.655113 C369.922313,77.7210261 366.136052,76.9039826 359.411878,76.9446783 C352.687704,76.9853739 352.277617,83.0709391 346.8964,83.8785913" id="Fill-300" fill="#DDAB85"></path>
          <path d="M343.294365,52.8738261 C341.906017,59.8891304 336.232104,69.3367826 338.725496,76.6197391 C341.217322,83.9026957 350.0968,88.6046087 355.288626,92.7023478 C361.130017,97.311913 367.30167,100.263913 372.360452,97.4543478 C376.295409,95.2693043 379.682539,88.6906957 380.895583,82.551913 C382.179061,76.071913 381.552974,68.7435652 379.488452,61.923913 C377.078017,53.9741739 372.711061,46.7162609 367.12167,42.3054783 C356.738017,34.11 346.071061,38.8416522 343.294365,52.8738261" id="Fill-302" fill="#ECB98C"></path>
          <path d="M347.3824,56.9000348 C347.3824,56.9000348 352.096835,60.811513 350.027617,64.5523826 C347.828487,68.5264696 347.977183,72.547513 347.977183,72.547513 C347.977183,72.547513 346.651443,68.3480348 343.616487,68.8363826 C340.58153,69.3247304 341.398574,75.2365565 341.398574,75.2365565 C341.398574,75.2365565 342.619443,80.2061217 346.901878,80.1012522 C351.185878,79.9963826 347.967791,87.8569043 347.967791,87.8569043 C347.967791,87.8569043 338.750226,80.0511652 336.5464,77.2729043 C333.617878,73.5852522 329.9584,67.5622957 329.986412,61.5894261 C330.042922,50.2165565 333.135791,45.6962087 338.441878,40.2774261 C346.235096,32.3198609 356.288487,35.1388174 356.288487,35.1388174 C356.288487,35.1388174 362.259791,34.0353391 370.204835,39.9753391 C378.955965,46.5226435 380.003096,48.4071652 380.003096,48.4071652 C380.003096,48.4071652 384.478052,58.9144696 372.4744,57.7014261 C364.185009,56.8640348 350.681878,56.7012522 347.3824,56.9000348" id="Fill-304" fill="#725D46"></path>
          <path d="M342.271809,66.1301217 C342.301548,65.8139478 342.337548,65.4962087 342.375113,65.1784696 C342.346939,65.4946435 342.321896,65.807687 342.298417,66.1222957 C342.289026,66.1238609 342.279635,66.1285565 342.271809,66.1301217" id="Fill-306" fill="#DD9145"></path>
          <path d="M349.922904,69.3881217 C349.9636,69.5258609 349.983948,69.6088174 349.983948,69.6088174 C349.983948,69.6088174 349.952643,69.5321217 349.922904,69.3881217" id="Fill-308" fill="#DD9145"></path>
          <path d="M379.554974,79.5949043 C379.916539,79.3882957 380.290626,79.2724696 380.6428,79.2411652 C381.07793,79.2036 381.480191,79.2943826 381.79793,79.5009913 C382.428713,78.9281217 382.860713,78.217513 383.0548,77.3801217 C383.452365,75.6802957 382.834104,73.6392522 381.400365,71.8157739 C381.394104,71.8079478 381.386278,71.801687 381.381583,71.7938609 C381.383148,71.3383826 381.380017,70.837513 381.375322,70.4430783 C381.381583,70.4446435 381.387843,70.4430783 381.394104,70.4446435 C381.483322,70.4665565 381.569409,70.505687 381.636713,70.5808174 C383.622974,72.7830783 384.501061,75.4126435 383.98767,77.6164696 C383.74193,78.6651652 383.192539,79.5729913 382.389583,80.2898609 C382.6948,81.2540348 382.090626,82.501513 380.985583,83.1322957 C380.480017,83.4218609 379.954104,83.5329913 379.4908,83.4844696 C378.902278,83.4218609 378.4108,83.1009913 378.190104,82.5531652 C377.794104,81.5764696 378.406104,80.2522957 379.554974,79.5949043" id="Fill-310" fill="#494949"></path>
          <path d="M341.761235,67.7036348 C341.845757,67.6692 341.930278,67.647287 342.01793,67.6253739 C342.025757,67.6238087 342.035148,67.619113 342.044539,67.6175478 C342.068017,67.3045043 342.091496,66.9898957 342.121235,66.6737217 C342.507843,62.5227652 343.332713,58.1652 344.595843,53.6385913 C348.479148,39.7253739 354.148365,35.2848522 358.524713,34.1359826 C358.834626,34.0545913 359.139843,33.9888522 359.43567,33.9372 C365.619843,32.8838087 370.908713,37.3180696 372.372191,39.5046783 L372.46767,39.6486783 C372.90593,40.3045043 373.402104,41.0464174 373.9108,41.8822435 C375.227148,44.0500696 376.624887,46.8627652 377.335496,50.5269391 C377.600017,51.887113 377.740887,53.4445043 377.775322,55.0488522 C377.412191,54.1065913 377.022452,53.2410261 376.606104,52.3425913 C376.588887,52.2095478 376.593583,51.9434609 376.5748,51.8119826 C375.759322,46.3165043 373.317583,42.663287 371.680365,40.2184174 L371.583322,40.0759826 C370.076017,37.8220696 365.010974,33.9966783 359.590626,34.923287 C356.793583,35.4006783 354.245409,37.0738957 352.000887,39.8693739 C349.410452,43.0937217 347.220713,47.811287 345.516191,53.9172 C344.181061,58.7067652 343.34367,63.299113 343.002452,67.6519826 C343.393757,67.7615478 343.788191,67.979113 344.173235,68.2984174 C345.253235,69.1984174 346.247148,70.8653739 346.820017,72.9658957 C347.350626,74.9114609 347.41167,76.8304174 347.086104,78.3142435 C346.8028,79.6055478 346.225235,80.5697217 345.397235,80.9281565 C345.389409,80.931287 345.381583,80.9375478 345.375322,80.9406783 C345.020017,81.0878087 344.644365,81.1097217 344.265583,81.0283304 C343.248191,80.8107652 342.196365,79.815287 341.36993,78.3142435 C340.948887,77.5519826 340.585757,76.6645043 340.316539,75.6768522 C339.31793,72.0220696 339.96593,68.4533739 341.761235,67.7036348" id="Fill-312" fill="#494949"></path>
          <path d="M380.002783,48.4066957 C380.002783,48.4066957 378.957217,46.5221739 370.204522,39.9764348 C367.820696,38.1936522 365.621565,37.0541739 363.701043,36.320087 L371.513043,57.6117391 C371.835478,57.6414783 372.165739,57.6696522 372.474087,57.7009565 C384.477739,58.914 380.002783,48.4066957 380.002783,48.4066957" id="Fill-314" fill="#725D46"></path>
          <g id="Group-318" transform="translate(478.365513, 0.000000)">
            <mask id="mask-8" fill="white">
              <use xlink:href="#path-7"></use>
            </mask>
            <g id="Clip-317"></g>
            <path d="M73.5558261,1.72158261 L71.2064348,0.558626087 C71.0953043,0.492886957 70.977913,0.441234783 70.8605217,0.386452174 L70.6633043,0.289408696 L70.6617391,0.29253913 C69.264,-0.261547826 67.464,-0.0471130435 65.5043478,1.08453913 L8.02330435,34.2702783 C3.61095652,36.8184522 0,43.0714957 0,48.1678435 L0,93.7297565 C0,96.4829739 1.05965217,98.3455826 2.72504348,99.0859304 L5.06191304,100.256713 L5.47826087,99.3426261 C6.27965217,99.1923652 7.13426087,98.8761913 8.02330435,98.3612348 L16.2438261,93.6154957 C16.2438261,93.6154957 17.9906087,104.506278 12.7486957,110.446278 C11.5466087,111.809583 11.5293913,112.697061 12.2384348,112.947496 L14.6942609,114.16367 L17.0233043,110.918974 C21.038087,107.64767 26.136,100.297409 27.698087,87.0024522 L65.5043478,65.1754957 C69.9166957,62.6273217 73.5276522,56.3742783 73.5276522,51.2779304 L73.5276522,5.71601739 C73.5276522,4.2321913 73.2146087,3.01288696 72.6714783,2.08001739 C73.188,1.87027826 73.5558261,1.72158261 73.5558261,1.72158261" id="Fill-316" fill="#7AB9DD" mask="url(#mask-8)"></path>
          </g>
          <path d="M489.063461,35.6044696 L546.542939,2.41873043 C550.956852,-0.129443478 554.567809,1.95542609 554.567809,7.05177391 L554.567809,52.6121217 C554.567809,57.7084696 550.956852,63.9630783 546.542939,66.5112522 L508.736678,88.3382087 C505.629722,114.770035 488.546939,117.722035 493.788852,111.782035 C499.030765,105.842035 497.282417,94.9512522 497.282417,94.9512522 L489.063461,99.6969913 C484.649548,102.245165 481.038591,100.160296 481.038591,95.0639478 L481.038591,49.5020348 C481.038591,44.4072522 484.649548,38.1526435 489.063461,35.6044696" id="Fill-319" fill="#A8D0E6"></path>
          <path d="M508.625704,68.9785043 C508.977878,68.7750261 509.264313,68.2804174 509.264313,67.8734609 C509.264313,67.4665043 508.977878,67.3021565 508.625704,67.5056348 C508.27353,67.7075478 507.987096,68.2037217 507.987096,68.6106783 C507.987096,69.0160696 508.27353,69.1819826 508.625704,68.9785043" id="Fill-321" fill="#FFFFFF"></path>
          <path d="M508.625704,57.1919478 C508.977878,56.9884696 509.264313,56.4938609 509.264313,56.0869043 C509.264313,55.681513 508.977878,55.5156 508.625704,55.7190783 C508.27353,55.9225565 507.987096,56.4171652 507.987096,56.8241217 C507.987096,57.229513 508.27353,57.3954261 508.625704,57.1919478" id="Fill-323" fill="#FFFFFF"></path>
          <path d="M508.625704,43.9326783 C508.27353,44.1361565 507.987096,44.6307652 507.987096,45.0377217 C507.987096,45.4446783 508.27353,45.6090261 508.625704,45.4055478 C508.977878,45.2036348 509.264313,44.7074609 509.264313,44.3005043 C509.264313,43.895113 508.977878,43.7307652 508.625704,43.9326783" id="Fill-325" fill="#FFFFFF"></path>
          <path d="M505.436417,51.6678261 C504.73207,52.0732174 504.160765,51.7429565 504.160765,50.9306087 L504.160765,43.5646957 C504.160765,42.7523478 504.73207,41.76 505.436417,41.3546087 L531.5912,26.2533913 C532.295548,25.848 532.868417,26.1782609 532.868417,26.9906087 L532.868417,34.3565217 C532.868417,35.1688696 532.295548,36.1596522 531.5912,36.5666087 L505.436417,51.6678261 Z M532.868417,38.7766957 L532.868417,46.1426087 C532.868417,46.9549565 532.295548,47.9473043 531.5912,48.3526957 L505.436417,63.453913 C504.73207,63.8593043 504.160765,63.5290435 504.160765,62.7166957 L504.160765,55.3507826 C504.160765,54.5384348 504.73207,53.5476522 505.436417,53.1406957 L531.5912,38.0394783 C532.295548,37.634087 532.868417,37.9643478 532.868417,38.7766957 L532.868417,38.7766957 Z M532.868417,50.5612174 L532.868417,57.9286957 C532.868417,58.7410435 532.295548,59.7318261 531.5912,60.1387826 L505.436417,75.24 C504.73207,75.6453913 504.160765,75.3151304 504.160765,74.5027826 L504.160765,67.1368696 C504.160765,66.3245217 504.73207,65.3321739 505.436417,64.9267826 L531.5912,49.8255652 C532.295548,49.4186087 532.868417,49.7504348 532.868417,50.5612174 L532.868417,50.5612174 Z M534.14407,33.6193043 L534.14407,26.2533913 C534.14407,24.6286957 532.999896,23.9681739 531.5912,24.7805217 L505.436417,39.8817391 C504.029287,40.694087 502.885113,42.6756522 502.885113,44.3003478 L502.885113,51.6678261 C502.885113,52.5521739 503.229461,53.1375652 503.76633,53.3676522 C503.229461,54.2175652 502.885113,55.2036522 502.885113,56.088 L502.885113,63.453913 C502.885113,64.3382609 503.229461,64.9236522 503.76633,65.1553043 C503.229461,66.0036522 502.885113,66.9897391 502.885113,67.874087 L502.885113,75.24 C502.885113,76.8646957 504.029287,77.5252174 505.436417,76.7128696 L531.5912,61.6116522 C532.999896,60.7993043 534.14407,58.8161739 534.14407,57.1914783 L534.14407,49.8255652 C534.14407,48.9412174 533.798157,48.3558261 533.261287,48.1241739 C533.798157,47.2742609 534.14407,46.2897391 534.14407,45.4069565 L534.14407,38.0394783 C534.14407,37.1551304 533.798157,36.5697391 533.261287,36.3396522 C533.798157,35.4897391 534.14407,34.5036522 534.14407,33.6193043 L534.14407,33.6193043 Z" id="Fill-327" fill="#FFFFFF"></path>
          <path d="M508.625704,45.4061739 C508.27353,45.6096522 507.987096,45.4437391 507.987096,45.0383478 C507.987096,44.6313913 508.27353,44.1352174 508.625704,43.9333043 C508.977878,43.7298261 509.264313,43.8957391 509.264313,44.3011304 C509.264313,44.708087 508.977878,45.2026957 508.625704,45.4061739 M508.625704,42.4604348 C507.570748,43.0693043 506.711443,44.5562609 506.711443,45.774 C506.711443,46.9933043 507.570748,47.4894783 508.625704,46.8790435 C509.680661,46.2701739 510.539965,44.7832174 510.539965,43.563913 C510.539965,42.3461739 509.680661,41.8515652 508.625704,42.4604348" id="Fill-329" fill="#FFFFFF"></path>
          <path d="M508.625704,55.7192348 C508.977878,55.5157565 509.264313,55.6816696 509.264313,56.0870609 C509.264313,56.4940174 508.977878,56.9886261 508.625704,57.1921043 C508.27353,57.3955826 507.987096,57.2296696 507.987096,56.8242783 C507.987096,56.4173217 508.27353,55.922713 508.625704,55.7192348 M508.625704,58.6649739 C509.680661,58.0561043 510.539965,56.5691478 510.539965,55.3514087 C510.539965,54.1321043 509.680661,53.6359304 508.625704,54.2463652 C507.570748,54.8552348 506.711443,56.3421913 506.711443,57.5599304 C506.711443,58.7792348 507.570748,59.2738435 508.625704,58.6649739" id="Fill-331" fill="#FFFFFF"></path>
          <path d="M508.625704,67.5050087 C508.977878,67.3015304 509.264313,67.4674435 509.264313,67.8728348 C509.264313,68.2797913 508.977878,68.7759652 508.625704,68.9778783 C508.27353,69.1813565 507.987096,69.0170087 507.987096,68.6100522 C507.987096,68.2030957 508.27353,67.708487 508.625704,67.5050087 M508.625704,70.4507478 C509.680661,69.8418783 510.539965,68.3549217 510.539965,67.1371826 C510.539965,65.9178783 509.680661,65.4217043 508.625704,66.0321391 C507.570748,66.6410087 506.711443,68.1279652 506.711443,69.3472696 C506.711443,70.5650087 507.570748,71.0611826 508.625704,70.4507478" id="Fill-333" fill="#FFFFFF"></path>
        </g>
      </g>
    </g>
  </g>
</svg>
